<svg id="Layer_1" data-name="Layer 1" xmlns="http://www.w3.org/2000/svg" xmlns:xlink="http://www.w3.org/1999/xlink" viewBox="0 0 729.51 356.37"><defs><style>.cls-1{fill:none;}.cls-2{isolation:isolate;}.cls-3{fill:#9a6c24;}.cls-4{fill:#7f591e;}.cls-5{fill:#da9933;}.cls-6{fill:#7e581e;}.cls-7{fill:#8b6221;}.cls-8{clip-path:url(#clip-path);}.cls-9{clip-path:url(#clip-path-2);}.cls-10{clip-path:url(#clip-path-3);}.cls-11{clip-path:url(#clip-path-4);}.cls-12{clip-path:url(#clip-path-5);}.cls-13{clip-path:url(#clip-path-6);}.cls-14{clip-path:url(#clip-path-7);}.cls-15{clip-path:url(#clip-path-8);}.cls-16{clip-path:url(#clip-path-9);}.cls-17{clip-path:url(#clip-path-10);}.cls-18{clip-path:url(#clip-path-11);}.cls-19{clip-path:url(#clip-path-12);}.cls-20{clip-path:url(#clip-path-13);}.cls-21{clip-path:url(#clip-path-14);}.cls-22{clip-path:url(#clip-path-15);}.cls-23{clip-path:url(#clip-path-16);}.cls-24{clip-path:url(#clip-path-17);}.cls-25{clip-path:url(#clip-path-18);}.cls-26{clip-path:url(#clip-path-19);}.cls-27{clip-path:url(#clip-path-20);}.cls-28{clip-path:url(#clip-path-21);}.cls-29{clip-path:url(#clip-path-22);}.cls-30{clip-path:url(#clip-path-23);}.cls-31{clip-path:url(#clip-path-24);}.cls-32{clip-path:url(#clip-path-25);}.cls-33{clip-path:url(#clip-path-26);}.cls-34{clip-path:url(#clip-path-27);}.cls-35{clip-path:url(#clip-path-28);}.cls-36{clip-path:url(#clip-path-29);}.cls-37{clip-path:url(#clip-path-30);}.cls-38{clip-path:url(#clip-path-31);}.cls-39{clip-path:url(#clip-path-32);}.cls-40{fill:#a37c04;}.cls-41{fill:#a87f05;}.cls-42{clip-path:url(#clip-path-33);}.cls-43{clip-path:url(#clip-path-34);}.cls-44{clip-path:url(#clip-path-35);}.cls-45{clip-path:url(#clip-path-36);}.cls-46{clip-path:url(#clip-path-37);}.cls-47{clip-path:url(#clip-path-38);}.cls-48{clip-path:url(#clip-path-39);}.cls-49{fill:#8f6c04;}.cls-50{fill:#8a6804;}.cls-51{fill:#856404;}.cls-52{fill:#826304;}.cls-53{clip-path:url(#clip-path-40);}.cls-54{clip-path:url(#clip-path-41);}.cls-55{fill:#9e7804;}.cls-56{clip-path:url(#clip-path-42);}.cls-57{fill:#947004;}.cls-58{fill:#997404;}.cls-59{clip-path:url(#clip-path-43);}.cls-60{clip-path:url(#clip-path-44);}.cls-61{clip-path:url(#clip-path-45);}.cls-62{fill:#dfa806;}.cls-63{clip-path:url(#clip-path-46);}.cls-64{clip-path:url(#clip-path-47);}.cls-65{clip-path:url(#clip-path-48);}.cls-66{clip-path:url(#clip-path-49);}.cls-67{clip-path:url(#clip-path-50);}.cls-68{clip-path:url(#clip-path-51);}.cls-69{clip-path:url(#clip-path-52);}.cls-70{clip-path:url(#clip-path-53);}.cls-71{clip-path:url(#clip-path-54);}.cls-72{clip-path:url(#clip-path-55);}.cls-73{clip-path:url(#clip-path-56);}.cls-74{clip-path:url(#clip-path-57);}.cls-75{clip-path:url(#clip-path-58);}.cls-76{clip-path:url(#clip-path-59);}.cls-77{clip-path:url(#clip-path-60);}.cls-78{clip-path:url(#clip-path-61);}.cls-79{clip-path:url(#clip-path-62);}.cls-80{clip-path:url(#clip-path-63);}.cls-81{clip-path:url(#clip-path-64);}.cls-82{clip-path:url(#clip-path-65);}.cls-83{clip-path:url(#clip-path-66);}.cls-84{clip-path:url(#clip-path-67);}.cls-85{clip-path:url(#clip-path-68);}.cls-86{clip-path:url(#clip-path-69);}.cls-87{clip-path:url(#clip-path-70);}.cls-88{clip-path:url(#clip-path-71);}.cls-89{clip-path:url(#clip-path-72);}.cls-90{clip-path:url(#clip-path-73);}.cls-91{clip-path:url(#clip-path-74);}.cls-92{clip-path:url(#clip-path-75);}.cls-93{clip-path:url(#clip-path-76);}.cls-94{clip-path:url(#clip-path-77);}.cls-95{clip-path:url(#clip-path-78);}.cls-96{clip-path:url(#clip-path-79);}.cls-97{clip-path:url(#clip-path-80);}.cls-98{clip-path:url(#clip-path-81);}.cls-99{clip-path:url(#clip-path-82);}.cls-100{clip-path:url(#clip-path-83);}.cls-101{clip-path:url(#clip-path-84);}.cls-102{clip-path:url(#clip-path-85);}.cls-103{clip-path:url(#clip-path-86);}.cls-104{clip-path:url(#clip-path-87);}.cls-105{clip-path:url(#clip-path-88);}.cls-106{clip-path:url(#clip-path-89);}.cls-107{clip-path:url(#clip-path-90);}.cls-108{clip-path:url(#clip-path-91);}.cls-109{clip-path:url(#clip-path-92);}.cls-110{clip-path:url(#clip-path-93);}.cls-111{font-size:18px;font-family:Ravie, Ravie;}</style><clipPath id="clip-path" transform="translate(-74.73 -7.5)"><path class="cls-1" d="M535.68,96.19l5.47,3,.2.12-5.47-3Z"/></clipPath><clipPath id="clip-path-2" transform="translate(-74.73 -7.5)"><path class="cls-1" d="M528.13,88.41l-5.47-3a16.18,16.18,0,0,1,11.9-3.24l5.47,3a16.18,16.18,0,0,0-11.9,3.24Z"/></clipPath><clipPath id="clip-path-3" transform="translate(-74.73 -7.5)"><path class="cls-1" d="M503.85,93.89l5.47,3c.12.07.18.33.18.79a82.79,82.79,0,0,1-1.72,11.93l-5.47-3A82.79,82.79,0,0,0,504,94.68C504,94.22,504,94,503.85,93.89Z"/></clipPath><clipPath id="clip-path-4" transform="translate(-74.73 -7.5)"><path class="cls-1" d="M506.26,68.85l5.47,3a2.54,2.54,0,0,1,1.58,2.24q0,3.75-7.17,8.78l-5.47-3q7.17-5,7.17-8.78A2.54,2.54,0,0,0,506.26,68.85Z"/></clipPath><clipPath id="clip-path-5" transform="translate(-74.73 -7.5)"><path class="cls-1" d="M505.83,45.52l-5.47-3q23.8-7.26,32.9-12.13l5.47,3Q529.62,38.26,505.83,45.52Z"/></clipPath><clipPath id="clip-path-6" transform="translate(-74.73 -7.5)"><path class="cls-1" d="M510.53,60.46l-5.47-3a26.86,26.86,0,0,0-1.34-7.17,31.28,31.28,0,0,0-3.37-7.77l5.47,3a31.28,31.28,0,0,1,3.37,7.77A26.86,26.86,0,0,1,510.53,60.46Z"/></clipPath><clipPath id="clip-path-7" transform="translate(-74.73 -7.5)"><path class="cls-1" d="M474.38,88.19l-5.47-3a12.58,12.58,0,0,0,3.86,1.18A41.44,41.44,0,0,0,485,86.23a36.11,36.11,0,0,0,15.63-6.37l5.47,3a36.11,36.11,0,0,1-15.63,6.37,41.44,41.44,0,0,1-12.28.16A12.58,12.58,0,0,1,474.38,88.19Z"/></clipPath><clipPath id="clip-path-8" transform="translate(-74.73 -7.5)"><path class="cls-1" d="M466.33,109.49l-5.47-3a10.34,10.34,0,0,1-2.06-1.46q-4.29-3.93-4.28-13.33a76.5,76.5,0,0,1,.89-10.93,47,47,0,0,1,7.77-20.39q7.18-10,18.34-11.61a25,25,0,0,1,15.78,3.08l5.47,3A25,25,0,0,0,487,51.76q-11.16,1.57-18.34,11.61a47,47,0,0,0-7.77,20.39A76.5,76.5,0,0,0,460,94.7q0,9.39,4.28,13.33A10.34,10.34,0,0,0,466.33,109.49Z"/></clipPath><clipPath id="clip-path-9" transform="translate(-74.73 -7.5)"><path class="cls-1" d="M673.56,206.21l-5.47-3a17.16,17.16,0,0,0,6.11,1.29,133.77,133.77,0,0,0,18.33-.22l5.47,3a133.77,133.77,0,0,1-18.33.22A17.16,17.16,0,0,1,673.56,206.21Z"/></clipPath><clipPath id="clip-path-10" transform="translate(-74.73 -7.5)"><path class="cls-1" d="M683.15,184.34l-5.47-3a6,6,0,0,1-3.16-5.75q0-9.9,7.7-17.84a43.6,43.6,0,0,1,15.47-10.07,1.34,1.34,0,0,0,.82-1.38c0-.9-.73-1.76-2.19-2.55l5.47,3c1.47.8,2.2,1.65,2.19,2.55a1.34,1.34,0,0,1-.82,1.38,43.6,43.6,0,0,0-15.47,10.07q-7.68,8-7.7,17.84A6,6,0,0,0,683.15,184.34Z"/></clipPath><clipPath id="clip-path-11" transform="translate(-74.73 -7.5)"><path class="cls-1" d="M631.29,220.87l-5.47-3q3.63-2.57,3.85-5.48l5.47,3Q634.92,218.29,631.29,220.87Z"/></clipPath><clipPath id="clip-path-12" transform="translate(-74.73 -7.5)"><path class="cls-1" d="M622.93,225.73l-5.47-3q8.23-4.84,8.35-4.86l5.47,3Q631.16,220.89,622.93,225.73Z"/></clipPath><clipPath id="clip-path-13" transform="translate(-74.73 -7.5)"><path class="cls-1" d="M625.59,237l-5.47-3q-2-3-3.4-10a1.19,1.19,0,0,1,.75-1.29l5.47,3a1.19,1.19,0,0,0-.75,1.29Q623.53,234,625.59,237Z"/></clipPath><clipPath id="clip-path-14" transform="translate(-74.73 -7.5)"><path class="cls-1" d="M710.82,134.88l5.47,3q-9-4.89-23.15-2.9-19.49,2.74-30.46,15.35l-5.47-3q11-12.61,30.46-15.35Q701.84,130,710.82,134.88Z"/></clipPath><clipPath id="clip-path-15" transform="translate(-74.73 -7.5)"><path class="cls-1" d="M635.13,215.38l-5.47-3q.9-7.88,1.81-15.68,1.6-15.14,1.61-23.33,0-8.86-1.83-10l5.47,3q1.85,1.14,1.83,10,0,8.2-1.61,23.33Q636,207.5,635.13,215.38Z"/></clipPath><clipPath id="clip-path-16" transform="translate(-74.73 -7.5)"><path class="cls-1" d="M630.82,163.13l5.47,3,.44.27-5.47-3Z"/></clipPath><clipPath id="clip-path-17" transform="translate(-74.73 -7.5)"><path class="cls-1" d="M622.94,150.44l-5.47-3a40.49,40.49,0,0,0,11.76,0q14.5-2,30.26-15.62l5.47,3q-15.76,13.57-30.26,15.62A40.49,40.49,0,0,1,622.94,150.44Z"/></clipPath><clipPath id="clip-path-18" transform="translate(-74.73 -7.5)"><path class="cls-1" d="M623.59,167.08l-5.47-3a.26.26,0,0,1-.13-.25c0-.74-.28-3.37-.84-7.89s-.84-7-.84-7.59a.79.79,0,0,1,.71-.91,1.85,1.85,0,0,1,.45,0l5.47,3a1.85,1.85,0,0,0-.45,0,.79.79,0,0,0-.71.91q0,.82.84,7.59c.56,4.53.84,7.15.84,7.89A.26.26,0,0,0,623.59,167.08Z"/></clipPath><clipPath id="clip-path-19" transform="translate(-74.73 -7.5)"><path class="cls-1" d="M566.34,233.25l-5.47-3a16.83,16.83,0,0,0,9.74,1.8l1-.12a21.36,21.36,0,0,0,7.77-2.66c1.05-.59,1.58-1.11,1.58-1.55a.51.51,0,0,0-.32-.45l5.47,3a.51.51,0,0,1,.32.45c0,.44-.53,1-1.58,1.55a21.36,21.36,0,0,1-7.77,2.66l-1,.12A16.83,16.83,0,0,1,566.34,233.25Z"/></clipPath><clipPath id="clip-path-20" transform="translate(-74.73 -7.5)"><path class="cls-1" d="M574.23,227.09l-5.47-3a20.59,20.59,0,0,1-3.19-2.14,14.9,14.9,0,0,1-5.66-12.16q0-4.72,5-8.34t13.52-4.81a61.63,61.63,0,0,1,12.45-.42q7.4.5,11.69,2.84l5.47,3q-4.29-2.33-11.69-2.84a61.63,61.63,0,0,0-12.45.42q-8.56,1.2-13.52,4.81t-5,8.34A14.9,14.9,0,0,0,571,224.95,20.59,20.59,0,0,0,574.23,227.09Z"/></clipPath><clipPath id="clip-path-21" transform="translate(-74.73 -7.5)"><path class="cls-1" d="M585.27,162.13l5.47,3q3.51,1.91,3.51,5.39,0,8-14.86,10.13l-5.47-3q14.84-2.09,14.86-10.13Q588.78,164,585.27,162.13Z"/></clipPath><clipPath id="clip-path-22" transform="translate(-74.73 -7.5)"><path class="cls-1" d="M554.22,179.89l-5.47-3q6.24,3.39,25.17.73l5.47,3Q560.46,183.28,554.22,179.89Z"/></clipPath><clipPath id="clip-path-23" transform="translate(-74.73 -7.5)"><path class="cls-1" d="M545.26,239.86l-5.47-3a38.76,38.76,0,0,1-11.24-9.39q-11.81-14.05-11.77-33.84.07-36.55,55.41-44.33,20.56-2.89,31,2.78l5.47,3q-10.41-5.66-31-2.78-55.34,7.78-55.41,44.33,0,19.78,11.77,33.84A38.76,38.76,0,0,0,545.26,239.86Z"/></clipPath><clipPath id="clip-path-24" transform="translate(-74.73 -7.5)"><path class="cls-1" d="M494.34,189.77l-5.47-3a1.15,1.15,0,0,1-.25-.18l5.47,3A1.15,1.15,0,0,0,494.34,189.77Z"/></clipPath><clipPath id="clip-path-25" transform="translate(-74.73 -7.5)"><path class="cls-1" d="M463.34,244.58l-5.47-3a6.81,6.81,0,0,0,4.31.68q5.74-.81,13-5.22t7.29-6.86a1.13,1.13,0,0,0-.63-1.06l5.47,3a1.13,1.13,0,0,1,.63,1.06q0,2.44-7.29,6.86t-13,5.22A6.81,6.81,0,0,1,463.34,244.58Z"/></clipPath><clipPath id="clip-path-26" transform="translate(-74.73 -7.5)"><path class="cls-1" d="M480.58,173.21l5.47,3q2.32,1.26,4.29,5.88,2.93,7.06,3.75,7.52l-5.47-3q-.83-.47-3.75-7.52Q482.9,174.47,480.58,173.21Z"/></clipPath><clipPath id="clip-path-27" transform="translate(-74.73 -7.5)"><path class="cls-1" d="M472.77,227.95l-5.47-3q-8.43-4.58-8.41-14.25,0-4.66,4.88-8.29,5.2-3.83,14.17-5.09a68.6,68.6,0,0,1,15.18-.21q8.15.74,12.7,3.22l5.47,3q-4.55-2.48-12.7-3.22a68.6,68.6,0,0,0-15.18.21q-9,1.26-14.17,5.09-4.87,3.64-4.88,8.29Q464.34,223.36,472.77,227.95Z"/></clipPath><clipPath id="clip-path-28" transform="translate(-74.73 -7.5)"><path class="cls-1" d="M483.77,149.48l-5.47-3q12.53-9.14,16.84-10.11l5.47,3Q496.3,140.33,483.77,149.48Z"/></clipPath><clipPath id="clip-path-29" transform="translate(-74.73 -7.5)"><path class="cls-1" d="M465.68,166l-5.47-3,4.65-.65q17.45-2.61,18-4.26a11.48,11.48,0,0,0,.52-3.36q0-4.94-5-8.3l5.47,3q5.05,3.35,5,8.3a11.48,11.48,0,0,1-.52,3.36q-.52,1.67-18,4.26Z"/></clipPath><clipPath id="clip-path-30" transform="translate(-74.73 -7.5)"><path class="cls-1" d="M474.27,133.54l5.47,3a.86.86,0,0,0-.39,0l-5.47-3A.86.86,0,0,1,474.27,133.54Z"/></clipPath><clipPath id="clip-path-31" transform="translate(-74.73 -7.5)"><path class="cls-1" d="M478.25,136.74l-5.47-3q.72-.17,1.09-.22l5.47,3Q479,136.57,478.25,136.74Z"/></clipPath><clipPath id="clip-path-32" transform="translate(-74.73 -7.5)"><path class="cls-1" d="M401.21,264.86l-5.47-3q3.83,1.1,10.53,2.37l5.47,3Q405,266,401.21,264.86Z"/></clipPath><clipPath id="clip-path-33" transform="translate(-74.73 -7.5)"><path class="cls-1" d="M433.52,253.4l-5.47-3q-.53-.29-1-.61-9.21-5.94-9.19-23.95,0-19.13,10.56-47.62l5.47,3q-10.52,28.5-10.56,47.62,0,18,9.19,23.95Q433,253.11,433.52,253.4Z"/></clipPath><clipPath id="clip-path-34" transform="translate(-74.73 -7.5)"><path class="cls-1" d="M410.23,188.22l-5.47-3a1.08,1.08,0,0,1-.46-.74l5.47,3A1.08,1.08,0,0,0,410.23,188.22Z"/></clipPath><clipPath id="clip-path-35" transform="translate(-74.73 -7.5)"><path class="cls-1" d="M431,147.62l-5.47-3a1.37,1.37,0,0,1,.55-.18q4.51-.63,21.28-4.47t25.38-6.23l5.47,3q-8.63,2.41-25.38,6.23t-21.28,4.47A1.37,1.37,0,0,0,431,147.62Z"/></clipPath><clipPath id="clip-path-36" transform="translate(-74.73 -7.5)"><path class="cls-1" d="M434.15,168.78l-5.47-3a74.55,74.55,0,0,0-1.75-13.19q-1.56-6.94-1.56-7.16c0-.44.07-.71.2-.81l5.47,3c-.14.1-.2.37-.2.81q0,.22,1.56,7.16A74.55,74.55,0,0,1,434.15,168.78Z"/></clipPath><clipPath id="clip-path-37" transform="translate(-74.73 -7.5)"><path class="cls-1" d="M411.51,167.16l-5.47-3q8.68,2.85,22.64,1.62l5.47,3Q420.2,170,411.51,167.16Z"/></clipPath><clipPath id="clip-path-38" transform="translate(-74.73 -7.5)"><path class="cls-1" d="M409.77,187.49l-5.47-3a31,31,0,0,1-.13-4A60.22,60.22,0,0,1,406,164.19l5.47,3a60.22,60.22,0,0,0-1.87,16.28A31,31,0,0,0,409.77,187.49Z"/></clipPath><clipPath id="clip-path-39" transform="translate(-74.73 -7.5)"><path class="cls-1" d="M367.14,272.24l-5.47-3q7.06-13.09,7.11-38.64l5.47,3Q374.21,259.14,367.14,272.24Z"/></clipPath><clipPath id="clip-path-40" transform="translate(-74.73 -7.5)"><path class="cls-1" d="M365.23,212.91l5.47,3q3.21,1.75,3.56,10.91l-5.47-3Q368.45,214.66,365.23,212.91Z"/></clipPath><clipPath id="clip-path-41" transform="translate(-74.73 -7.5)"><path class="cls-1" d="M386.95,171.86l5.47,3a8.63,8.63,0,0,0-5.46-.9l-5.47-3A8.63,8.63,0,0,1,386.95,171.86Z"/></clipPath><clipPath id="clip-path-42" transform="translate(-74.73 -7.5)"><path class="cls-1" d="M345.82,227.18l-5.47-3q8.39-29,30.45-47.54,6.1-5.06,10.69-5.7l5.47,3q-4.59.65-10.69,5.7Q354.21,198.17,345.82,227.18Z"/></clipPath><clipPath id="clip-path-43" transform="translate(-74.73 -7.5)"><path class="cls-1" d="M308.35,258.43l-5.47-3a14.15,14.15,0,0,1,5.47-1.81,21.13,21.13,0,0,1,10.26,1.29l5.47,3a21.13,21.13,0,0,0-10.26-1.29A14.15,14.15,0,0,0,308.35,258.43Z"/></clipPath><clipPath id="clip-path-44" transform="translate(-74.73 -7.5)"><path class="cls-1" d="M306.41,196.79l5.47,3q2.65,1.44,2.86,5.2.66,10.91,2.48,25,3,22.68,6.85,28l-5.47-3q-3.82-5.28-6.85-28-1.82-14.07-2.48-25Q309.05,198.23,306.41,196.79Z"/></clipPath><clipPath id="clip-path-45" transform="translate(-74.73 -7.5)"><path class="cls-1" d="M301.81,198.56l-5.47-3q-1.49-.81-1.48-6.11a14.24,14.24,0,0,1,.28-3.06l5.47,3a14.24,14.24,0,0,0-.28,3.06Q300.32,197.76,301.81,198.56Z"/></clipPath><clipPath id="clip-path-46" transform="translate(-74.73 -7.5)"><path class="cls-1" d="M300.61,189.39l-5.47-3q1.3.56,54.1-3.1l5.47,3Q301.91,189.94,300.61,189.39Z"/></clipPath><clipPath id="clip-path-47" transform="translate(-74.73 -7.5)"><path class="cls-1" d="M247.29,278.09l-5.47-3a16.82,16.82,0,0,0,9.73,1.8l1-.12a21.37,21.37,0,0,0,7.78-2.66c1.05-.59,1.57-1.11,1.57-1.55a.51.51,0,0,0-.32-.45l5.47,3a.51.51,0,0,1,.32.45c0,.44-.52,1-1.57,1.55a21.37,21.37,0,0,1-7.78,2.66l-1,.12A16.82,16.82,0,0,1,247.29,278.09Z"/></clipPath><clipPath id="clip-path-48" transform="translate(-74.73 -7.5)"><path class="cls-1" d="M255.16,271.92l-5.47-3a20.69,20.69,0,0,1-3.19-2.14,14.92,14.92,0,0,1-5.66-12.16q0-4.72,5-8.34t13.51-4.81a61.64,61.64,0,0,1,12.45-.42q7.4.5,11.69,2.84l5.47,3q-4.29-2.33-11.69-2.84a61.64,61.64,0,0,0-12.45.42q-8.54,1.2-13.51,4.81t-5,8.34A14.92,14.92,0,0,0,252,269.79,20.68,20.68,0,0,0,255.16,271.92Z"/></clipPath><clipPath id="clip-path-49" transform="translate(-74.73 -7.5)"><path class="cls-1" d="M266.22,207l5.47,3q3.51,1.91,3.5,5.38,0,8-14.86,10.13l-5.47-3q14.84-2.09,14.86-10.13Q269.73,208.89,266.22,207Z"/></clipPath><clipPath id="clip-path-50" transform="translate(-74.73 -7.5)"><path class="cls-1" d="M235.17,224.73l-5.47-3q6.24,3.39,25.17.73l5.47,3Q241.4,228.12,235.17,224.73Z"/></clipPath><clipPath id="clip-path-51" transform="translate(-74.73 -7.5)"><path class="cls-1" d="M226.2,284.71l-5.47-3a38.75,38.75,0,0,1-11.24-9.39q-11.81-14.05-11.77-33.85.07-36.55,55.41-44.33,20.55-2.89,31,2.77l5.47,3q-10.4-5.66-31-2.77-55.34,7.78-55.41,44.33,0,19.78,11.77,33.85A38.75,38.75,0,0,0,226.2,284.71Z"/></clipPath><clipPath id="clip-path-52" transform="translate(-74.73 -7.5)"><path class="cls-1" d="M410.73,121.09l-5.47-3a42.69,42.69,0,0,0,6.57,1l5.47,3A42.69,42.69,0,0,1,410.73,121.09Z"/></clipPath><clipPath id="clip-path-53" transform="translate(-74.73 -7.5)"><path class="cls-1" d="M425.79,74.22l5.47,3q1.64.89,1.64,4.61,0,6.32-4.33,18-4,10.74-7.52,15.67l-5.47-3q3.54-4.93,7.52-15.67,4.32-11.67,4.33-18Q427.44,75.12,425.79,74.22Z"/></clipPath><clipPath id="clip-path-54" transform="translate(-74.73 -7.5)"><path class="cls-1" d="M444.93,57.31l5.47,3a14.62,14.62,0,0,0-9.24-1.39Q430.77,60.35,421,72a86.64,86.64,0,0,0-10.23,16l-5.47-3a86.64,86.64,0,0,1,10.23-16q9.74-11.7,20.13-13.16A14.62,14.62,0,0,1,444.93,57.31Z"/></clipPath><clipPath id="clip-path-55" transform="translate(-74.73 -7.5)"><path class="cls-1" d="M385.64,81.69l5.47,3q1.84,1,2.42,5.49.24,1.79.22,8.73,0,15.3-4.68,25.76l-5.47-3q4.66-10.46,4.68-25.76,0-6.94-.22-8.73Q387.48,82.69,385.64,81.69Z"/></clipPath><clipPath id="clip-path-56" transform="translate(-74.73 -7.5)"><path class="cls-1" d="M400.53,53.47l5.47,3a5.62,5.62,0,0,0-3.55-.56l-5.47-3A5.62,5.62,0,0,1,400.53,53.47Z"/></clipPath><clipPath id="clip-path-57" transform="translate(-74.73 -7.5)"><path class="cls-1" d="M373,94.3l-5.47-3q5.79-21.26,22.05-34.51,4.26-3.46,7.41-3.91l5.47,3q-3.15.44-7.41,3.91Q378.77,73,373,94.3Z"/></clipPath><clipPath id="clip-path-58" transform="translate(-74.73 -7.5)"><path class="cls-1" d="M345.63,116l-5.47-3a11,11,0,0,1,3.77-1.16,15.27,15.27,0,0,1,7.2.71l5.47,3a15.27,15.27,0,0,0-7.2-.71A11,11,0,0,0,345.63,116Z"/></clipPath><clipPath id="clip-path-59" transform="translate(-74.73 -7.5)"><path class="cls-1" d="M342,74l5.47,3a3.92,3.92,0,0,1,1.86,3.14q3.18,25.48,7.23,35.45l-5.47-3q-4-10-7.23-35.45A3.92,3.92,0,0,0,342,74Z"/></clipPath><clipPath id="clip-path-60" transform="translate(-74.73 -7.5)"><path class="cls-1" d="M339.09,70.68l-5.47-3q5.52-.78,38.78-7.38l5.47,3Q344.59,69.91,339.09,70.68Z"/></clipPath><clipPath id="clip-path-61" transform="translate(-74.73 -7.5)"><path class="cls-1" d="M339.4,76.83l-5.47-3q-1.33-.72-1.33-6l5.47,3Q338.06,76.1,339.4,76.83Z"/></clipPath><clipPath id="clip-path-62" transform="translate(-74.73 -7.5)"><path class="cls-1" d="M300.68,121.67l-5.47-3a12.07,12.07,0,0,0,4.32.91,95.54,95.54,0,0,0,13-.14l5.47,3a95.54,95.54,0,0,1-13,.14A12.07,12.07,0,0,1,300.68,121.67Z"/></clipPath><clipPath id="clip-path-63" transform="translate(-74.73 -7.5)"><path class="cls-1" d="M307.46,106.21l-5.47-3a4.24,4.24,0,0,1-2.23-4.06,17.75,17.75,0,0,1,5.44-12.61,30.77,30.77,0,0,1,10.94-7.12,1,1,0,0,0,.58-1c0-.65-.52-1.25-1.56-1.81l5.47,3c1,.56,1.56,1.16,1.56,1.81a1,1,0,0,1-.58,1,30.77,30.77,0,0,0-10.94,7.12,17.75,17.75,0,0,0-5.44,12.61A4.24,4.24,0,0,0,307.46,106.21Z"/></clipPath><clipPath id="clip-path-64" transform="translate(-74.73 -7.5)"><path class="cls-1" d="M270.81,132l-5.47-3q2.56-1.83,2.71-3.88l5.47,3Q273.37,130.21,270.81,132Z"/></clipPath><clipPath id="clip-path-65" transform="translate(-74.73 -7.5)"><path class="cls-1" d="M266.77,143.45l-5.47-3a20,20,0,0,1-2.41-7.07l5.47,3A20,20,0,0,0,266.77,143.45Z"/></clipPath><clipPath id="clip-path-66" transform="translate(-74.73 -7.5)"><path class="cls-1" d="M264.37,136.39l-5.47-3a.86.86,0,0,1,.53-.91q5.81-3.42,5.91-3.43l5.47,3q-.1,0-5.91,3.43A.86.86,0,0,0,264.37,136.39Z"/></clipPath><clipPath id="clip-path-67" transform="translate(-74.73 -7.5)"><path class="cls-1" d="M325.42,70.38l5.47,3q-6.35-3.45-16.36-2Q300.74,73.25,293,82.17l-5.47-3q7.75-8.92,21.53-10.86Q319.07,66.93,325.42,70.38Z"/></clipPath><clipPath id="clip-path-68" transform="translate(-74.73 -7.5)"><path class="cls-1" d="M273.52,128.16l-5.47-3q.63-5.56,1.28-11.09,1.13-10.69,1.14-16.49c0-4.18-.43-6.53-1.29-7.07l5.47,3c.86.54,1.3,2.89,1.29,7.07q0,5.8-1.14,16.49Q274.16,122.59,273.52,128.16Z"/></clipPath><clipPath id="clip-path-69" transform="translate(-74.73 -7.5)"><path class="cls-1" d="M268.87,90.34l5.47,3,.31.19-5.47-3Z"/></clipPath><clipPath id="clip-path-70" transform="translate(-74.73 -7.5)"><path class="cls-1" d="M264.9,82.25l-5.47-3a28.53,28.53,0,0,0,8.32,0q10.25-1.44,21.39-11l5.47,3q-11.14,9.6-21.39,11A28.53,28.53,0,0,1,264.9,82.25Z"/></clipPath><clipPath id="clip-path-71" transform="translate(-74.73 -7.5)"><path class="cls-1" d="M265.36,94l-5.47-3a.18.18,0,0,1-.09-.18c0-.52-.2-2.38-.6-5.58s-.59-5-.59-5.37a.55.55,0,0,1,.5-.63,1.29,1.29,0,0,1,.32,0l5.47,3a1.29,1.29,0,0,0-.32,0,.55.55,0,0,0-.5.63q0,.58.59,5.37c.39,3.19.6,5.06.6,5.58A.18.18,0,0,0,265.36,94Z"/></clipPath><clipPath id="clip-path-72" transform="translate(-74.73 -7.5)"><path class="cls-1" d="M258.12,135.2l5.47,3,.19.11-5.47-3Z"/></clipPath><clipPath id="clip-path-73" transform="translate(-74.73 -7.5)"><path class="cls-1" d="M250.55,127.42l-5.47-3A16.2,16.2,0,0,1,257,121.2l5.47,3a16.2,16.2,0,0,0-11.91,3.24Z"/></clipPath><clipPath id="clip-path-74" transform="translate(-74.73 -7.5)"><path class="cls-1" d="M226.28,132.9l5.47,3c.12.06.18.33.18.79a82.36,82.36,0,0,1-1.71,11.93l-5.47-3a82.36,82.36,0,0,0,1.71-11.93C226.46,133.23,226.4,133,226.28,132.9Z"/></clipPath><clipPath id="clip-path-75" transform="translate(-74.73 -7.5)"><path class="cls-1" d="M228.69,107.86l5.47,3a2.54,2.54,0,0,1,1.58,2.23q0,3.75-7.17,8.78l-5.47-3q7.16-5,7.17-8.78A2.54,2.54,0,0,0,228.69,107.86Z"/></clipPath><clipPath id="clip-path-76" transform="translate(-74.73 -7.5)"><path class="cls-1" d="M228.25,84.53l-5.47-3q23.8-7.26,32.9-12.13l5.47,3Q252.06,77.27,228.25,84.53Z"/></clipPath><clipPath id="clip-path-77" transform="translate(-74.73 -7.5)"><path class="cls-1" d="M233,99.47l-5.47-3a26.86,26.86,0,0,0-1.34-7.17,31.58,31.58,0,0,0-3.37-7.77l5.47,3a31.58,31.58,0,0,1,3.37,7.77A26.86,26.86,0,0,1,233,99.47Z"/></clipPath><clipPath id="clip-path-78" transform="translate(-74.73 -7.5)"><path class="cls-1" d="M196.81,127.21l-5.47-3a12.55,12.55,0,0,0,3.85,1.17,41.54,41.54,0,0,0,12.29-.16,36.11,36.11,0,0,0,15.63-6.37l5.47,3a36.11,36.11,0,0,1-15.63,6.37,41.54,41.54,0,0,1-12.29.16A12.55,12.55,0,0,1,196.81,127.21Z"/></clipPath><clipPath id="clip-path-79" transform="translate(-74.73 -7.5)"><path class="cls-1" d="M188.77,148.5l-5.47-3a10.3,10.3,0,0,1-2.06-1.46q-4.29-3.93-4.28-13.33a77.56,77.56,0,0,1,.89-10.93,47.08,47.08,0,0,1,7.77-20.39q7.18-10,18.34-11.61a25,25,0,0,1,15.78,3.09l5.47,3a25,25,0,0,0-15.78-3.09q-11.17,1.57-18.34,11.61a47.08,47.08,0,0,0-7.77,20.39,77.56,77.56,0,0,0-.89,10.93q0,9.39,4.28,13.33A10.3,10.3,0,0,0,188.77,148.5Z"/></clipPath><clipPath id="clip-path-80" transform="translate(-74.73 -7.5)"><path class="cls-1" d="M190.73,251l-5.47-3a1.8,1.8,0,0,1,.68-.43l5.47,3A1.8,1.8,0,0,0,190.73,251Z"/></clipPath><clipPath id="clip-path-81" transform="translate(-74.73 -7.5)"><path class="cls-1" d="M149.43,280,144,277a12.21,12.21,0,0,0,7.73,1.28,37.21,37.21,0,0,0,6.36-1.48q11.36-3.74,17.8-11.95,3.15-4,9.4-16.83l5.47,3q-6.25,12.84-9.4,16.83-6.44,8.2-17.8,11.95a37.21,37.21,0,0,1-6.36,1.48A12.21,12.21,0,0,1,149.43,280Z"/></clipPath><clipPath id="clip-path-82" transform="translate(-74.73 -7.5)"><path class="cls-1" d="M165.46,186.23l5.47,3q4.79,2.61,4.79,5a1.5,1.5,0,0,1-.75,1.14l-5.47-3a1.5,1.5,0,0,0,.75-1.14Q170.25,188.84,165.46,186.23Z"/></clipPath><clipPath id="clip-path-83" transform="translate(-74.73 -7.5)"><path class="cls-1" d="M164.08,198.17l-5.47-3q5.48-1.37,10.88-2.78l5.47,3Q169.56,196.81,164.08,198.17Z"/></clipPath><clipPath id="clip-path-84" transform="translate(-74.73 -7.5)"><path class="cls-1" d="M153,226.56l-5.47-3q-5.28-2.87-5.27-7.79c0-2.17.8-4.91,2.41-8.24a23.83,23.83,0,0,1,13.9-12.36l5.47,3a23.83,23.83,0,0,0-13.9,12.36c-1.61,3.33-2.41,6.07-2.41,8.24Q147.76,223.69,153,226.56Z"/></clipPath><clipPath id="clip-path-85" transform="translate(-74.73 -7.5)"><path class="cls-1" d="M180.45,179.54l5.47,3q-12.56-6.83-34.11-3.8l-5.47-3Q167.89,172.71,180.45,179.54Z"/></clipPath><clipPath id="clip-path-86" transform="translate(-74.73 -7.5)"><path class="cls-1" d="M121.06,301l-5.47-3Q95,286.85,95.06,243.84q.06-31,14.73-48.79,13.23-16,36.55-19.31l5.47,3Q128.49,182,115.26,198q-14.68,17.78-14.73,48.79Q100.45,289.83,121.06,301Z"/></clipPath><clipPath id="clip-path-87" transform="translate(-74.73 -7.5)"><path class="cls-1" d="M168.73,116.57l-5.47-3a1.71,1.71,0,0,1,.66-.42l5.47,3A1.71,1.71,0,0,0,168.73,116.57Z"/></clipPath><clipPath id="clip-path-88" transform="translate(-74.73 -7.5)"><path class="cls-1" d="M128.2,145l-5.47-3a12,12,0,0,0,7.59,1.25,36.56,36.56,0,0,0,6.24-1.46q11.15-3.67,17.48-11.73,3.09-3.91,9.22-16.51l5.47,3q-6.13,12.59-9.22,16.51-6.33,8.07-17.48,11.73a36.56,36.56,0,0,1-6.24,1.46A12,12,0,0,1,128.2,145Z"/></clipPath><clipPath id="clip-path-89" transform="translate(-74.73 -7.5)"><path class="cls-1" d="M143.84,53l5.47,3Q154,58.5,154,60.89a1.46,1.46,0,0,1-.74,1.12l-5.47-3a1.46,1.46,0,0,0,.74-1.12Q148.53,55.52,143.84,53Z"/></clipPath><clipPath id="clip-path-90" transform="translate(-74.73 -7.5)"><path class="cls-1" d="M142.58,64.74l-5.47-3q5.37-1.34,10.68-2.74l5.47,3Q147.95,63.41,142.58,64.74Z"/></clipPath><clipPath id="clip-path-91" transform="translate(-74.73 -7.5)"><path class="cls-1" d="M131.74,92.6l-5.47-3q-5.19-2.82-5.17-7.64a19.74,19.74,0,0,1,2.36-8.09,23.41,23.41,0,0,1,13.65-12.14l5.47,3a23.41,23.41,0,0,0-13.65,12.14A19.74,19.74,0,0,0,126.57,85Q126.56,89.78,131.74,92.6Z"/></clipPath><clipPath id="clip-path-92" transform="translate(-74.73 -7.5)"><path class="cls-1" d="M158.53,46.39l5.47,3q-12.32-6.7-33.47-3.73l-5.47-3Q146.2,39.69,158.53,46.39Z"/></clipPath><clipPath id="clip-path-93" transform="translate(-74.73 -7.5)"><path class="cls-1" d="M100.35,165.72l-5.47-3q-20.23-11-20.15-53.23.06-30.44,14.45-47.9,13-15.74,35.89-19l5.47,3q-22.9,3.22-35.89,19-14.4,17.47-14.45,47.9Q80.12,154.72,100.35,165.72Z"/></clipPath></defs><title>LOGO</title><g class="cls-2"><polygon class="cls-3" points="514.6 69.09 514.6 69.09 528.85 76.2 528.85 76.2 514.6 69.09"/><polygon class="cls-4" points="573.16 76.2 573.16 76.2 587.42 69.09 587.42 69.09 573.16 76.2"/><polygon class="cls-5" points="528.85 48.95 528.85 61.98 514.6 69.09 528.85 76.2 528.85 89.2 496.84 73.14 496.84 65.02 528.85 48.95"/><polygon class="cls-4" points="496.84 65.02 496.84 65.02 528.85 48.95 528.85 48.95 496.84 65.02"/><polygon class="cls-3" points="573.16 48.95 573.16 48.95 605.17 65.02 605.17 65.02 573.16 48.95"/><polygon class="cls-5" points="573.16 48.95 605.17 65.02 605.17 73.14 573.16 89.2 573.16 76.2 587.42 69.09 573.16 61.98 573.16 48.95"/><polygon class="cls-6" points="537.05 88.63 537.05 88.63 551.9 43.57 551.9 43.57 537.05 88.63"/><polygon class="cls-5" points="564.57 43.57 549.63 88.63 537.05 88.63 551.9 43.57 564.57 43.57"/><rect class="cls-7" x="551.9" y="43.57" width="12.67"/><path class="cls-5" d="M625.72,7.5c37.52,0,68,28.94,68,64.52s-30.52,64.52-68,64.52-68-28.94-68-64.52S588.19,7.5,625.72,7.5Zm0,120c32.55,0,59-24.91,59-55.52s-26.49-55.52-59-55.52-59,24.91-59,55.52,26.49,55.52,59,55.52" transform="translate(-74.73 -7.5)"/></g><g class="cls-2"><g class="cls-2"><g class="cls-8"><g class="cls-2"><path d="M541.36,99.28l-5.47-3-.2-.12,5.47,3,.2.12" transform="translate(-74.73 -7.5)"/></g></g></g><g class="cls-2"><g class="cls-9"><g class="cls-2"><path d="M528.13,88.41l-5.47-3q.43-.35.88-.66l5.47,3q-.45.31-.88.66" transform="translate(-74.73 -7.5)"/><path d="M529,87.74l-5.47-3a14.34,14.34,0,0,1,2-1.18l5.47,3a14.34,14.34,0,0,0-2,1.18" transform="translate(-74.73 -7.5)"/><path d="M531.06,86.56l-5.47-3a16.15,16.15,0,0,1,4.66-1.36,15.08,15.08,0,0,1,4.3,0l5.47,3a15.08,15.08,0,0,0-4.3,0,16.15,16.15,0,0,0-4.66,1.36" transform="translate(-74.73 -7.5)"/></g></g></g><g class="cls-2"><g class="cls-10"><g class="cls-2"><path d="M507.78,109.58l-5.47-3A82.79,82.79,0,0,0,504,94.68c0-.46-.06-.72-.18-.79l5.47,3c.12.07.18.33.18.79a82.79,82.79,0,0,1-1.72,11.93" transform="translate(-74.73 -7.5)"/></g></g></g><g class="cls-2"><g class="cls-11"><g class="cls-2"><path d="M506.14,82.84l-5.47-3a35.94,35.94,0,0,0,3.39-2.66l5.47,3a35.94,35.94,0,0,1-3.39,2.66" transform="translate(-74.73 -7.5)"/><path d="M509.53,80.18l-5.47-3a20,20,0,0,0,1.62-1.62l5.47,3a20,20,0,0,1-1.62,1.62" transform="translate(-74.73 -7.5)"/><path d="M511.15,78.56l-5.47-3a12.94,12.94,0,0,0,.89-1.12l5.47,3a12.94,12.94,0,0,1-.89,1.12" transform="translate(-74.73 -7.5)"/><path d="M512,77.44l-5.47-3a9.14,9.14,0,0,0,.57-.92l5.47,3a9.14,9.14,0,0,1-.57.92" transform="translate(-74.73 -7.5)"/><path d="M512.61,76.52l-5.47-3a6.72,6.72,0,0,0,.39-.87l5.47,3a6.72,6.72,0,0,1-.39.87" transform="translate(-74.73 -7.5)"/><path d="M513,75.65l-5.47-3a4.64,4.64,0,0,0,.3-1.59,2.54,2.54,0,0,0-1.58-2.24l5.47,3a2.54,2.54,0,0,1,1.58,2.24,4.64,4.64,0,0,1-.3,1.59" transform="translate(-74.73 -7.5)"/></g></g></g><g class="cls-2"><g class="cls-12"><g class="cls-2"><path d="M505.83,45.52l-5.47-3q20.74-6.33,30.31-10.84l5.47,3q-9.58,4.51-30.31,10.84" transform="translate(-74.73 -7.5)"/><path d="M536.14,34.68l-5.47-3q1.41-.67,2.58-1.29l5.47,3q-1.17.63-2.58,1.29" transform="translate(-74.73 -7.5)"/></g></g></g><g class="cls-2"><g class="cls-13"><g class="cls-2"><path d="M510.53,60.46l-5.47-3a26.86,26.86,0,0,0-1.34-7.17,31.28,31.28,0,0,0-3.37-7.77l5.47,3a31.28,31.28,0,0,1,3.37,7.77,26.86,26.86,0,0,1,1.34,7.17" transform="translate(-74.73 -7.5)"/></g></g></g><g class="cls-2"><g class="cls-14"><g class="cls-2"><path d="M474.38,88.19l-5.47-3,.25.13,5.47,3-.25-.13" transform="translate(-74.73 -7.5)"/><path d="M474.63,88.32l-5.47-3a10.51,10.51,0,0,0,2,.71l5.47,3a10.51,10.51,0,0,1-2-.71" transform="translate(-74.73 -7.5)"/><path d="M476.62,89l-5.47-3q.74.19,1.62.34A41.44,41.44,0,0,0,485,86.23a33.73,33.73,0,0,0,9.73-2.95l5.47,3a33.73,33.73,0,0,1-9.73,2.95,41.44,41.44,0,0,1-12.28.16q-.88-.15-1.62-.34" transform="translate(-74.73 -7.5)"/><path d="M500.24,86.26l-5.47-3a41.18,41.18,0,0,0,5.87-3.4l5.47,3a41.18,41.18,0,0,1-5.87,3.4" transform="translate(-74.73 -7.5)"/><path d="M506.11,82.86l-5.47-3,0,0,5.47,3,0,0" transform="translate(-74.73 -7.5)"/></g></g></g><path d="M540,85.17l1.33,14.11c-1.51-.93-4-1.16-7.4-.68a57.08,57.08,0,0,0-14,4.16,52,52,0,0,0-12.2,6.82,82.79,82.79,0,0,0,1.72-11.93c0-.56-.08-.83-.26-.8a2.37,2.37,0,0,0-.66.52,42.73,42.73,0,0,1-19.41,11.49,74,74,0,0,1-9.09,2q-11,1.55-15.8-2.84Q460,104.1,460,94.7a76.5,76.5,0,0,1,.89-10.93,47,47,0,0,1,7.77-20.39q7.18-10,18.34-11.61,12.1-1.7,23.53,8.7a26.86,26.86,0,0,0-1.34-7.17,31.28,31.28,0,0,0-3.37-7.77q23.8-7.26,32.9-12.13a24.52,24.52,0,0,1,.86,6.5c0,1.82-.21,3-.59,3.43q-7.12,3.61-7.11,5.69c0,1.25,0,3.05.13,5.51s.14,4.35.13,5.67q0,16.76-4,28.22A16.18,16.18,0,0,1,540,85.17Zm-33.89-2.33q7.17-5,7.17-8.78c0-1.46-1.34-2.49-4.05-3.09A32.32,32.32,0,0,0,498,71a47.93,47.93,0,0,0-17.41,6.1q-8.14,4.74-8.14,8.4,0,2.92,5.75,3.89a41.44,41.44,0,0,0,12.28-.16,36.11,36.11,0,0,0,15.63-6.37" transform="translate(-74.73 -7.5)"/><g class="cls-2"><g class="cls-15"><g class="cls-2"><path d="M466.33,109.49l-5.47-3a10.34,10.34,0,0,1-2.06-1.46q-4.29-3.93-4.28-13.33a76.5,76.5,0,0,1,.89-10.93,53.81,53.81,0,0,1,2.65-10.56l5.47,3a53.81,53.81,0,0,0-2.65,10.56A76.5,76.5,0,0,0,460,94.7q0,9.39,4.28,13.33a10.34,10.34,0,0,0,2.06,1.46" transform="translate(-74.73 -7.5)"/><path d="M463.54,73.21l-5.47-3a44,44,0,0,1,2.55-5.68l5.47,3a44,44,0,0,0-2.55,5.68" transform="translate(-74.73 -7.5)"/><path d="M466.09,67.53l-5.47-3a40.41,40.41,0,0,1,2.51-4.07l5.47,3a40.41,40.41,0,0,0-2.51,4.07" transform="translate(-74.73 -7.5)"/><path d="M468.6,63.47l-5.47-3,.06-.09a34.5,34.5,0,0,1,2.19-2.76l5.47,3a34.5,34.5,0,0,0-2.19,2.76l-.06.09" transform="translate(-74.73 -7.5)"/><path d="M470.85,60.61l-5.47-3a30,30,0,0,1,2.41-2.44l5.47,3a30,30,0,0,0-2.41,2.44" transform="translate(-74.73 -7.5)"/><path d="M473.27,58.17l-5.47-3a26.92,26.92,0,0,1,2.69-2.13L476,56a26.92,26.92,0,0,0-2.69,2.13" transform="translate(-74.73 -7.5)"/><path d="M476,56l-5.47-3A25.11,25.11,0,0,1,474.08,51l5.47,3A25.11,25.11,0,0,0,476,56" transform="translate(-74.73 -7.5)"/><path d="M479.55,54l-5.47-3a25.8,25.8,0,0,1,7.45-2.2,24,24,0,0,1,9.44.54l5.47,3a24,24,0,0,0-9.44-.54,25.8,25.8,0,0,0-7.45,2.2" transform="translate(-74.73 -7.5)"/><path d="M496.44,52.3l-5.47-3a27.35,27.35,0,0,1,5.21,2l5.47,3a27.35,27.35,0,0,0-5.21-2" transform="translate(-74.73 -7.5)"/><path d="M501.65,54.26l-5.47-3,1.13.59,5.47,3-1.13-.59" transform="translate(-74.73 -7.5)"/></g></g></g></g><g class="cls-2"><g class="cls-2"><g class="cls-16"><g class="cls-2"><path d="M673.56,206.21l-5.47-3,.17.09,5.47,3-.17-.09" transform="translate(-74.73 -7.5)"/><path d="M673.73,206.29l-5.47-3a8.21,8.21,0,0,0,1.54.54l5.47,3a8.21,8.21,0,0,1-1.54-.54" transform="translate(-74.73 -7.5)"/><path d="M675.27,206.83l-5.47-3a27.37,27.37,0,0,0,4.4.67,133.77,133.77,0,0,0,18.33-.22l5.47,3a133.77,133.77,0,0,1-18.33.22,27.37,27.37,0,0,1-4.4-.67" transform="translate(-74.73 -7.5)"/></g></g></g><g class="cls-2"><g class="cls-17"><g class="cls-2"><path d="M683.15,184.34l-5.47-3a6,6,0,0,1-3.16-5.75,23.66,23.66,0,0,1,1.44-8.18l5.47,3a23.66,23.66,0,0,0-1.44,8.18,6,6,0,0,0,3.16,5.75" transform="translate(-74.73 -7.5)"/><path d="M681.44,170.42l-5.47-3a24.42,24.42,0,0,1,1.42-3.15l5.47,3a24.42,24.42,0,0,0-1.42,3.15" transform="translate(-74.73 -7.5)"/><path d="M682.86,167.26l-5.47-3a26.87,26.87,0,0,1,1.67-2.7l5.47,3a26.87,26.87,0,0,0-1.67,2.7" transform="translate(-74.73 -7.5)"/><path d="M684.53,164.56l-5.47-3a30.66,30.66,0,0,1,2.13-2.69l5.47,3a30.66,30.66,0,0,0-2.13,2.69" transform="translate(-74.73 -7.5)"/><path d="M686.65,161.87l-5.47-3q.5-.57,1-1.12.92-1,1.91-1.84l5.47,3q-1,.89-1.91,1.84-.54.56-1,1.12" transform="translate(-74.73 -7.5)"/><path d="M689.6,158.91l-5.47-3a39.92,39.92,0,0,1,4-3.16l5.47,3a39.92,39.92,0,0,0-4,3.16" transform="translate(-74.73 -7.5)"/><path d="M693.6,155.75l-5.47-3a46,46,0,0,1,6.57-3.77l5.47,3a46,46,0,0,0-6.57,3.77" transform="translate(-74.73 -7.5)"/><path d="M700.18,152l-5.47-3q1.45-.68,3-1.3l.07,0,5.47,3-.07,0q-1.54.61-3,1.3" transform="translate(-74.73 -7.5)"/><path d="M703.24,150.65l-5.47-3,.19-.11,5.47,3-.19.11" transform="translate(-74.73 -7.5)"/><path d="M703.43,150.54l-5.47-3,.12-.1,5.47,3-.12.1" transform="translate(-74.73 -7.5)"/><path d="M703.56,150.44l-5.47-3,.09-.1,5.47,3-.09.1" transform="translate(-74.73 -7.5)"/><path d="M703.65,150.35l-5.47-3,.08-.1,5.47,3-.08.1" transform="translate(-74.73 -7.5)"/><path d="M703.73,150.25l-5.47-3,.08-.12,5.47,3-.08.12" transform="translate(-74.73 -7.5)"/><path d="M703.81,150.13l-5.47-3a1.32,1.32,0,0,0,.08-.17l5.47,3a1.32,1.32,0,0,1-.08.17" transform="translate(-74.73 -7.5)"/><path d="M703.88,150l-5.47-3a1.89,1.89,0,0,0,.1-.65c0-.9-.73-1.76-2.19-2.55l5.47,3c1.47.8,2.2,1.65,2.19,2.55a1.89,1.89,0,0,1-.1.65" transform="translate(-74.73 -7.5)"/></g></g></g><g class="cls-2"><g class="cls-18"><g class="cls-2"><path d="M631.29,220.87l-5.47-3a14.69,14.69,0,0,0,1.34-1.06l5.47,3a14.69,14.69,0,0,1-1.34,1.06" transform="translate(-74.73 -7.5)"/><path d="M632.63,219.8l-5.47-3A10.67,10.67,0,0,0,628,216l5.47,3a10.68,10.68,0,0,1-.86.86" transform="translate(-74.73 -7.5)"/><path d="M633.49,218.94,628,216a8.33,8.33,0,0,0,.58-.73l5.47,3a8.33,8.33,0,0,1-.58.73" transform="translate(-74.73 -7.5)"/><path d="M634.07,218.21l-5.47-3a6.85,6.85,0,0,0,.43-.69l5.47,3a6.85,6.85,0,0,1-.43.69" transform="translate(-74.73 -7.5)"/><path d="M634.49,217.52l-5.47-3a5.83,5.83,0,0,0,.34-.75l5.47,3a5.83,5.83,0,0,1-.34.75" transform="translate(-74.73 -7.5)"/><path d="M634.83,216.77l-5.47-3a5.06,5.06,0,0,0,.3-1.39l5.47,3a5.06,5.06,0,0,1-.3,1.39" transform="translate(-74.73 -7.5)"/></g></g></g><g class="cls-2"><g class="cls-19"><g class="cls-2"><path d="M622.93,225.73l-5.47-3q7.84-4.61,8.32-4.85l5.47,3q-.48.23-8.32,4.85" transform="translate(-74.73 -7.5)"/><path d="M631.26,220.88l-5.47-3h0l5.47,3h0" transform="translate(-74.73 -7.5)"/></g></g></g><g class="cls-2"><g class="cls-20"><g class="cls-2"><path d="M625.59,237l-5.47-3q-2-3-3.4-10a1.06,1.06,0,0,1,0-.56l5.47,3a1.06,1.06,0,0,0,0,.56q1.34,7,3.4,10" transform="translate(-74.73 -7.5)"/><path d="M622.23,226.46l-5.47-3,.06-.13,5.47,3-.06.13" transform="translate(-74.73 -7.5)"/><path d="M622.29,226.33l-5.47-3,.07-.11,5.47,3-.07.11" transform="translate(-74.73 -7.5)"/><path d="M622.35,226.23l-5.47-3,.08-.11,5.47,3-.08.11" transform="translate(-74.73 -7.5)"/><path d="M622.44,226.12l-5.47-3,.12-.12,5.47,3-.12.12" transform="translate(-74.73 -7.5)"/><path d="M622.56,226l-5.47-3,.19-.15,5.47,3-.19.15" transform="translate(-74.73 -7.5)"/><path d="M622.74,225.85l-5.47-3,.19-.12,5.47,3-.19.12" transform="translate(-74.73 -7.5)"/></g></g></g><g class="cls-2"><g class="cls-21"><g class="cls-2"><path d="M662.68,150.32l-5.47-3,.22-.25,5.47,3-.22.25" transform="translate(-74.73 -7.5)"/><path d="M662.9,150.07l-5.47-3a42.37,42.37,0,0,1,3.41-3.45l5.47,3a42.37,42.37,0,0,0-3.41,3.45" transform="translate(-74.73 -7.5)"/><path d="M666.31,146.62l-5.47-3a42.13,42.13,0,0,1,4.23-3.34l5.47,3a42.13,42.13,0,0,0-4.23,3.34" transform="translate(-74.73 -7.5)"/><path d="M670.54,143.27l-5.47-3a44.42,44.42,0,0,1,6.35-3.65l5.47,3a44.42,44.42,0,0,0-6.35,3.65" transform="translate(-74.73 -7.5)"/><path d="M676.89,139.63l-5.47-3A56.33,56.33,0,0,1,687.67,132a43.89,43.89,0,0,1,17,.51l5.47,3a43.89,43.89,0,0,0-17-.51,56.33,56.33,0,0,0-16.25,4.67" transform="translate(-74.73 -7.5)"/><path d="M710.16,135.47l-5.47-3a27.19,27.19,0,0,1,5.22,1.91l5.47,3a27.19,27.19,0,0,0-5.22-1.91" transform="translate(-74.73 -7.5)"/><path d="M715.38,137.39l-5.47-3,.91.47,5.47,3-.91-.47" transform="translate(-74.73 -7.5)"/></g></g></g><g class="cls-2"><g class="cls-22"><g class="cls-2"><path d="M635.13,215.38l-5.47-3q.9-7.88,1.81-15.68,1.6-15.14,1.61-23.33,0-8.86-1.83-10l5.47,3q1.85,1.14,1.83,10,0,8.2-1.61,23.33-.9,7.8-1.81,15.68" transform="translate(-74.73 -7.5)"/></g></g></g><g class="cls-2"><g class="cls-23"><g class="cls-2"><path d="M636.72,166.37l-5.47-3-.44-.27,5.47,3,.44.27" transform="translate(-74.73 -7.5)"/></g></g></g><g class="cls-2"><g class="cls-24"><g class="cls-2"><path d="M622.94,150.44l-5.47-3a40.49,40.49,0,0,0,11.76,0,45.08,45.08,0,0,0,12.94-4l5.47,3a45.08,45.08,0,0,1-12.94,4,40.49,40.49,0,0,1-11.76,0" transform="translate(-74.73 -7.5)"/><path d="M647.65,146.49l-5.47-3a66.87,66.87,0,0,0,9.5-5.54l5.47,3a66.87,66.87,0,0,1-9.5,5.54" transform="translate(-74.73 -7.5)"/><path d="M657.14,140.95l-5.47-3a94,94,0,0,0,7.82-6.08l5.47,3a94,94,0,0,1-7.82,6.08" transform="translate(-74.73 -7.5)"/></g></g></g><path d="M665,134.87q-.9,5.95-2.29,15.45,11-12.61,30.46-15.35,26.48-3.72,34.85,16.58a29.31,29.31,0,0,1,2.44,10.58q0,10.34-17.4,17.66a73.07,73.07,0,0,1-18.21,5.44Q680,187.31,680,178.59q0-9.9,7.7-17.84a43.6,43.6,0,0,1,15.47-10.07,1.34,1.34,0,0,0,.82-1.38c0-1.12-1.13-2.17-3.41-3.13a17.21,17.21,0,0,0-9-.88,29.49,29.49,0,0,0-16.36,7.91q-8.7,8.16-8.73,20.86,0,10.48,6.1,31.11c.36,1.18,2.74,1.95,7.11,2.32a133.77,133.77,0,0,0,18.33-.22q-1,4.79-2.35,11.55-2.67.23-7.87,1A252.82,252.82,0,0,0,625.59,237q-2-3-3.4-10a1.19,1.19,0,0,1,.75-1.29q8.23-4.84,8.35-4.86,3.63-2.57,3.85-5.48.9-7.88,1.81-15.68,1.6-15.14,1.61-23.33,0-8.86-1.83-10c-1.5-1-3.69-1.32-6.56-.92a40,40,0,0,0-5.62,1.52,3.14,3.14,0,0,1-.56.15c-.35,0-.53,0-.53-.29,0-.74-.28-3.37-.84-7.89s-.84-7-.84-7.59a.79.79,0,0,1,.71-.91,1.85,1.85,0,0,1,.45,0,40.49,40.49,0,0,0,11.76,0Q649.21,148.45,665,134.87Z" transform="translate(-74.73 -7.5)"/><g class="cls-2"><g class="cls-25"><g class="cls-2"><path d="M623.59,167.08l-5.47-3a.26.26,0,0,1-.13-.25c0-.74-.28-3.37-.84-7.89s-.84-7-.84-7.59a1.24,1.24,0,0,1,.07-.42l5.47,3a1.24,1.24,0,0,0-.07.42q0,.82.84,7.59c.56,4.53.84,7.15.84,7.89a.26.26,0,0,0,.13.25" transform="translate(-74.73 -7.5)"/><path d="M621.84,150.92l-5.47-3,0-.1,5.47,3,0,.1" transform="translate(-74.73 -7.5)"/><path d="M621.89,150.82l-5.47-3,0-.07,5.47,3,0,.07" transform="translate(-74.73 -7.5)"/><path d="M621.93,150.75l-5.47-3,0-.06,5.47,3,0,.06" transform="translate(-74.73 -7.5)"/><path d="M622,150.69l-5.47-3,.05-.05,5.47,3-.05.05" transform="translate(-74.73 -7.5)"/><path d="M622,150.63l-5.47-3,.07-.05,5.47,3-.07.05" transform="translate(-74.73 -7.5)"/><path d="M622.1,150.58l-5.47-3,.11-.06,5.47,3-.11.06" transform="translate(-74.73 -7.5)"/><path d="M622.2,150.52l-5.47-3a1,1,0,0,1,.28-.08,1.85,1.85,0,0,1,.45,0l5.47,3a1.85,1.85,0,0,0-.45,0,1,1,0,0,0-.28.08" transform="translate(-74.73 -7.5)"/></g></g></g></g><g class="cls-2"><g class="cls-2"><g class="cls-26"><g class="cls-2"><path d="M566.34,233.25l-5.47-3,.54.28,5.47,3-.54-.28" transform="translate(-74.73 -7.5)"/><path d="M566.89,233.53l-5.47-3a15.11,15.11,0,0,0,2.88,1.07l5.47,3a15.11,15.11,0,0,1-2.88-1.07" transform="translate(-74.73 -7.5)"/><path d="M569.77,234.6l-5.47-3a18.49,18.49,0,0,0,6.31.45l1-.12a21.44,21.44,0,0,0,6.2-1.84l5.47,3a21.44,21.44,0,0,1-6.2,1.84l-1,.12a18.49,18.49,0,0,1-6.31-.45" transform="translate(-74.73 -7.5)"/><path d="M583.32,233.09l-5.47-3q.8-.38,1.58-.83.37-.21.65-.4l5.47,3q-.28.2-.65.4-.78.45-1.58.83" transform="translate(-74.73 -7.5)"/><path d="M585.55,231.86l-5.47-3a4.38,4.38,0,0,0,.44-.34l5.47,3a4.38,4.38,0,0,1-.44.34" transform="translate(-74.73 -7.5)"/><path d="M586,231.52l-5.47-3,.2-.2,5.47,3-.2.2" transform="translate(-74.73 -7.5)"/><path d="M586.19,231.32l-5.47-3,.12-.15,5.47,3-.12.15" transform="translate(-74.73 -7.5)"/><path d="M586.31,231.17l-5.47-3,.08-.12,5.47,3-.08.12" transform="translate(-74.73 -7.5)"/><path d="M586.38,231l-5.47-3L581,228l5.47,3-.05.12" transform="translate(-74.73 -7.5)"/><path d="M586.44,230.93,581,228a.64.64,0,0,0,0-.22.51.51,0,0,0-.32-.45l5.47,3a.51.51,0,0,1,.32.45.64.64,0,0,1,0,.22" transform="translate(-74.73 -7.5)"/></g></g></g><g class="cls-2"><g class="cls-27"><g class="cls-2"><path d="M574.23,227.09l-5.47-3a20.59,20.59,0,0,1-3.19-2.14,14.9,14.9,0,0,1-5.66-12.16,8.47,8.47,0,0,1,.52-2.92l5.47,3a8.47,8.47,0,0,0-.52,2.92A14.9,14.9,0,0,0,571,224.95a20.59,20.59,0,0,0,3.19,2.14" transform="translate(-74.73 -7.5)"/><path d="M565.9,209.86l-5.47-3a8.93,8.93,0,0,1,.52-1.16l5.47,3a8.93,8.93,0,0,0-.52,1.16" transform="translate(-74.73 -7.5)"/><path d="M566.42,208.7l-5.47-3a9.94,9.94,0,0,1,.62-1l5.47,3a9.94,9.94,0,0,0-.62,1" transform="translate(-74.73 -7.5)"/><path d="M567,207.7l-5.47-3a11.46,11.46,0,0,1,.79-1l5.47,3a11.46,11.46,0,0,0-.79,1" transform="translate(-74.73 -7.5)"/><path d="M567.83,206.7l-5.47-3a13.83,13.83,0,0,1,1.12-1.12l5.47,3a13.83,13.83,0,0,0-1.12,1.12" transform="translate(-74.73 -7.5)"/><path d="M568.95,205.58l-5.47-3a17.43,17.43,0,0,1,1.41-1.13l.37-.26,5.47,3-.37.26a17.43,17.43,0,0,0-1.41,1.13" transform="translate(-74.73 -7.5)"/><path d="M570.72,204.18l-5.47-3a21.39,21.39,0,0,1,3.05-1.75l5.47,3a21.39,21.39,0,0,0-3.05,1.75" transform="translate(-74.73 -7.5)"/><path d="M573.77,202.44l-5.47-3a35.18,35.18,0,0,1,10.1-2.8,61.63,61.63,0,0,1,12.45-.42,38.76,38.76,0,0,1,7,1.06l5.47,3a38.76,38.76,0,0,0-7-1.06,61.63,61.63,0,0,0-12.45.42,35.18,35.18,0,0,0-10.1,2.8" transform="translate(-74.73 -7.5)"/><path d="M603.33,200.27l-5.47-3a21.37,21.37,0,0,1,4.08,1.47l5.47,3a21.37,21.37,0,0,0-4.08-1.47" transform="translate(-74.73 -7.5)"/><path d="M607.41,201.74l-5.47-3,.6.31,5.47,3-.6-.31" transform="translate(-74.73 -7.5)"/></g></g></g><g class="cls-2"><g class="cls-28"><g class="cls-2"><path d="M579.39,180.62l-5.47-3a32.31,32.31,0,0,0,9.1-2.43l5.47,3a32.31,32.31,0,0,1-9.1,2.43" transform="translate(-74.73 -7.5)"/><path d="M588.49,178.2l-5.47-3a14.6,14.6,0,0,0,2.1-1.19l5.47,3a14.6,14.6,0,0,1-2.1,1.19" transform="translate(-74.73 -7.5)"/><path d="M590.59,177l-5.47-3a10.75,10.75,0,0,0,1.07-.84l5.47,3a10.75,10.75,0,0,1-1.07.84" transform="translate(-74.73 -7.5)"/><path d="M591.66,176.16l-5.47-3a9,9,0,0,0,.73-.73l5.47,3a9,9,0,0,1-.73.73" transform="translate(-74.73 -7.5)"/><path d="M592.39,175.43l-5.47-3a7.92,7.92,0,0,0,.55-.7l5.47,3a7.92,7.92,0,0,1-.55.7" transform="translate(-74.73 -7.5)"/><path d="M592.94,174.73l-5.47-3a7.3,7.3,0,0,0,.46-.74l5.47,3a7.3,7.3,0,0,1-.46.74" transform="translate(-74.73 -7.5)"/><path d="M593.4,174l-5.47-3a7,7,0,0,0,.41-.92l5.47,3a7,7,0,0,1-.41.92" transform="translate(-74.73 -7.5)"/><path d="M593.81,173.07l-5.47-3a7.53,7.53,0,0,0,.44-2.58q0-3.47-3.51-5.39l5.47,3q3.51,1.91,3.51,5.39a7.53,7.53,0,0,1-.44,2.58" transform="translate(-74.73 -7.5)"/></g></g></g><g class="cls-2"><g class="cls-29"><g class="cls-2"><path d="M554.22,179.89l-5.47-3,.34.18,5.47,3-.34-.18" transform="translate(-74.73 -7.5)"/><path d="M554.57,180.07l-5.47-3a13.14,13.14,0,0,0,2.51.9l5.47,3a13.14,13.14,0,0,1-2.51-.9" transform="translate(-74.73 -7.5)"/><path d="M557.08,181l-5.47-3q7,1.81,22.31-.34l5.47,3q-15.3,2.15-22.31.34" transform="translate(-74.73 -7.5)"/></g></g></g><g class="cls-2"><g class="cls-30"><g class="cls-2"><path d="M545.26,239.86l-5.47-3a38.76,38.76,0,0,1-11.24-9.39q-11.81-14.05-11.77-33.84a39.52,39.52,0,0,1,2.3-13.64l5.47,3a39.52,39.52,0,0,0-2.3,13.64q0,19.78,11.77,33.84a38.76,38.76,0,0,0,11.24,9.39" transform="translate(-74.73 -7.5)"/><path d="M524.55,183l-5.47-3a34,34,0,0,1,2-4.36l5.47,3a34,34,0,0,0-2,4.36" transform="translate(-74.73 -7.5)"/><path d="M526.51,178.63l-5.47-3a34.11,34.11,0,0,1,2.14-3.47l5.47,3a34.11,34.11,0,0,0-2.14,3.47" transform="translate(-74.73 -7.5)"/><path d="M528.64,175.17l-5.47-3a35.69,35.69,0,0,1,2.48-3.14l5.47,3a35.69,35.69,0,0,0-2.48,3.14" transform="translate(-74.73 -7.5)"/><path d="M531.12,172l-5.47-3a38.89,38.89,0,0,1,3.17-3.19l5.47,3a38.89,38.89,0,0,0-3.17,3.19" transform="translate(-74.73 -7.5)"/><path d="M534.29,168.84l-5.47-3a44.72,44.72,0,0,1,4.47-3.51l5.47,3a44.72,44.72,0,0,0-4.47,3.51" transform="translate(-74.73 -7.5)"/><path d="M538.75,165.33l-5.47-3a57.1,57.1,0,0,1,8.22-4.67l5.47,3a57.1,57.1,0,0,0-8.22,4.67" transform="translate(-74.73 -7.5)"/><path d="M547,160.65l-5.47-3q12.29-5.77,30.69-8.36,15.07-2.12,24.69.36l5.47,3q-9.62-2.48-24.69-.36-18.4,2.59-30.69,8.36" transform="translate(-74.73 -7.5)"/><path d="M602.35,152.66l-5.47-3a28.26,28.26,0,0,1,5.4,2l5.47,3a28.26,28.26,0,0,0-5.4-2" transform="translate(-74.73 -7.5)"/><path d="M607.76,154.62l-5.47-3,.87.45,5.47,3-.87-.45" transform="translate(-74.73 -7.5)"/></g></g></g><path d="M617.11,164.1q3.33,7.44,3.31,19.69,0,3.76-.29,8.9c0,.47-.15.72-.44.76-8-.79-20.69-1.48-38.33-2.11q-23.53-.75-24.62-.6-1.57.22-1.6,14.11,0,17.49,7.06,25.14,5.39,5.82,13.88,5.06l1-.12a21.36,21.36,0,0,0,7.77-2.66c1.05-.59,1.58-1.11,1.58-1.55s-.27-.51-.82-.62q-9-.52-14.62-5.15a14.9,14.9,0,0,1-5.66-12.16q0-4.72,5-8.34t13.52-4.81a61.63,61.63,0,0,1,12.45-.42Q614,200.42,613.93,212a16.68,16.68,0,0,1-1.65,6.87q-4.6,9.94-11.38,14.88-9.86,7.14-30,10Q547.81,247,534,230.48q-11.81-14.05-11.77-33.84.07-36.55,55.41-44.33Q609.75,147.79,617.11,164.1Zm-37.72,16.52q14.84-2.09,14.86-10.13,0-4.14-5-6.06t-13.2-.76a68.83,68.83,0,0,0-16.63,4.26q-8.28,3.38-8.29,7.15,0,9.52,28.24,5.55" transform="translate(-74.73 -7.5)"/></g><g class="cls-2"><g class="cls-2"><g class="cls-31"><g class="cls-2"><path d="M494.34,189.77l-5.47-3a1.15,1.15,0,0,1-.25-.18l5.47,3a1.15,1.15,0,0,0,.25.18" transform="translate(-74.73 -7.5)"/></g></g></g><g class="cls-2"><g class="cls-32"><g class="cls-2"><path d="M463.34,244.58l-5.47-3,.23.12,5.47,3-.23-.12" transform="translate(-74.73 -7.5)"/><path d="M463.58,244.7l-5.47-3a6.2,6.2,0,0,0,1.2.44l5.47,3a6.2,6.2,0,0,1-1.2-.44" transform="translate(-74.73 -7.5)"/><path d="M464.78,245.14l-5.47-3a7.39,7.39,0,0,0,2.88.12,29.15,29.15,0,0,0,8.28-2.64l5.47,3a29.15,29.15,0,0,1-8.28,2.64,7.39,7.39,0,0,1-2.88-.12" transform="translate(-74.73 -7.5)"/><path d="M475.94,242.62l-5.47-3a52.19,52.19,0,0,0,4.76-2.58q1.48-.9,2.66-1.71l5.47,3q-1.18.82-2.66,1.71a52.19,52.19,0,0,1-4.76,2.58" transform="translate(-74.73 -7.5)"/><path d="M483.36,238.33l-5.47-3a25.87,25.87,0,0,0,2.56-2l5.47,3a25.87,25.87,0,0,1-2.56,2" transform="translate(-74.73 -7.5)"/><path d="M485.91,236.35l-5.47-3a12,12,0,0,0,1-1l5.47,3a12,12,0,0,1-1,1" transform="translate(-74.73 -7.5)"/><path d="M486.88,235.38l-5.47-3a7.09,7.09,0,0,0,.49-.62l5.47,3a7.09,7.09,0,0,1-.49.62" transform="translate(-74.73 -7.5)"/><path d="M487.37,234.77l-5.47-3a4.65,4.65,0,0,0,.29-.47l5.47,3a4.65,4.65,0,0,1-.29.47" transform="translate(-74.73 -7.5)"/><path d="M487.66,234.3l-5.47-3a3.21,3.21,0,0,0,.19-.42l5.47,3a3.21,3.21,0,0,1-.19.42" transform="translate(-74.73 -7.5)"/><path d="M487.85,233.88l-5.47-3a2,2,0,0,0,.13-.7,1.13,1.13,0,0,0-.63-1.06l5.47,3a1.13,1.13,0,0,1,.63,1.06,2,2,0,0,1-.13.7" transform="translate(-74.73 -7.5)"/></g></g></g><g class="cls-2"><g class="cls-33"><g class="cls-2"><path d="M494.09,189.59l-5.47-3q-.83-.47-3.75-7.52-2-4.62-4.29-5.88l5.47,3q2.32,1.26,4.29,5.88,2.93,7.06,3.75,7.52" transform="translate(-74.73 -7.5)"/></g></g></g><g class="cls-2"><g class="cls-34"><g class="cls-2"><path d="M472.77,227.95l-5.47-3q-8.43-4.58-8.41-14.25a8.45,8.45,0,0,1,.52-2.92l5.47,3a8.45,8.45,0,0,0-.52,2.92q0,9.67,8.41,14.25" transform="translate(-74.73 -7.5)"/><path d="M464.88,210.78l-5.47-3a9,9,0,0,1,.52-1.16l5.47,3a9,9,0,0,0-.52,1.16" transform="translate(-74.73 -7.5)"/><path d="M465.4,209.62l-5.47-3a10.06,10.06,0,0,1,.63-1l5.47,3a10.06,10.06,0,0,0-.63,1" transform="translate(-74.73 -7.5)"/><path d="M466,208.6l-5.47-3a11.68,11.68,0,0,1,.81-1l5.47,3a11.68,11.68,0,0,0-.81,1" transform="translate(-74.73 -7.5)"/><path d="M466.84,207.58l-5.47-3a14.22,14.22,0,0,1,1.15-1.15l5.47,3a14.22,14.22,0,0,0-1.15,1.15" transform="translate(-74.73 -7.5)"/><path d="M468,206.43l-5.47-3q.58-.52,1.25-1l.48-.34,5.47,3-.48.34q-.67.5-1.25,1" transform="translate(-74.73 -7.5)"/><path d="M469.71,205.06l-5.47-3a22.35,22.35,0,0,1,3.2-1.83l5.47,3a22.35,22.35,0,0,0-3.2,1.83" transform="translate(-74.73 -7.5)"/><path d="M472.91,203.24l-5.47-3a36.58,36.58,0,0,1,10.49-2.92,68.6,68.6,0,0,1,15.18-.21,46.79,46.79,0,0,1,7.41,1.22l5.47,3a46.79,46.79,0,0,0-7.41-1.22,68.6,68.6,0,0,0-15.18.21,36.58,36.58,0,0,0-10.49,2.92" transform="translate(-74.73 -7.5)"/><path d="M506,201.32l-5.47-3a24.46,24.46,0,0,1,4.65,1.67l5.47,3a24.46,24.46,0,0,0-4.65-1.67" transform="translate(-74.73 -7.5)"/><path d="M510.64,203l-5.47-3,.64.33,5.47,3-.64-.33" transform="translate(-74.73 -7.5)"/></g></g></g><g class="cls-2"><g class="cls-35"><g class="cls-2"><path d="M483.77,149.48l-5.47-3q2.36-1.72,4.43-3.16l5.47,3q-2.07,1.43-4.43,3.16" transform="translate(-74.73 -7.5)"/><path d="M488.21,146.32l-5.47-3a75.17,75.17,0,0,1,9.77-6l5.47,3a75.17,75.17,0,0,0-9.77,6" transform="translate(-74.73 -7.5)"/><path d="M498,140.35l-5.47-3a13.32,13.32,0,0,1,2.64-1l5.47,3a13.32,13.32,0,0,0-2.64,1" transform="translate(-74.73 -7.5)"/></g></g></g><g class="cls-2"><g class="cls-36"><g class="cls-2"><path d="M465.68,166l-5.47-3,4.65-.65q13.93-2.08,17.07-3.55l5.47,3q-3.14,1.48-17.07,3.55l-4.65.65" transform="translate(-74.73 -7.5)"/><path d="M487.4,161.84l-5.47-3a3.8,3.8,0,0,0,.5-.28l5.47,3a3.8,3.8,0,0,1-.5.28" transform="translate(-74.73 -7.5)"/><path d="M487.9,161.56l-5.47-3,.18-.13,5.47,3-.18.13" transform="translate(-74.73 -7.5)"/><path d="M488.08,161.43l-5.47-3,.09-.09,5.47,3-.09.09" transform="translate(-74.73 -7.5)"/><path d="M488.17,161.34l-5.47-3,.06-.07,5.47,3-.06.07" transform="translate(-74.73 -7.5)"/><path d="M488.23,161.27l-5.47-3,0-.06,5.47,3,0,.06" transform="translate(-74.73 -7.5)"/><path d="M488.27,161.21l-5.47-3,0-.06,5.47,3,0,.06" transform="translate(-74.73 -7.5)"/><path d="M488.29,161.15l-5.47-3v0a11.48,11.48,0,0,0,.52-3.36q0-4.94-5-8.3l5.47,3q5.05,3.35,5,8.3a11.48,11.48,0,0,1-.52,3.36v0" transform="translate(-74.73 -7.5)"/></g></g></g><g class="cls-2"><g class="cls-37"><g class="cls-2"><path d="M479.35,136.52l-5.47-3a1.15,1.15,0,0,1,.37,0l5.47,3a1.15,1.15,0,0,0-.37,0" transform="translate(-74.73 -7.5)"/><path d="M479.71,136.5l-5.47-3h0l5.47,3h0" transform="translate(-74.73 -7.5)"/><polyline points="405.01 129.01 399.54 126.04 399.54 126.04 405.01 129.02 405.01 129.01"/></g></g></g><g class="cls-2"><g class="cls-38"><g class="cls-2"><path d="M478.25,136.74l-5.47-3q.72-.17,1.09-.22l5.47,3q-.38.05-1.09.22" transform="translate(-74.73 -7.5)"/></g></g></g><g class="cls-2"><g class="cls-39"><g class="cls-2"><path class="cls-40" d="M401.21,264.86l-5.47-3,1.43.39,5.47,3-1.43-.39" transform="translate(-74.73 -7.5)"/><path class="cls-41" d="M402.63,265.25l-5.47-3q3.58.93,9.11,2l5.47,3q-5.53-1.05-9.11-2" transform="translate(-74.73 -7.5)"/></g></g></g><g class="cls-2"><g class="cls-42"><g class="cls-2"><path d="M433.52,253.4l-5.47-3q-.53-.29-1-.61-9.21-5.94-9.19-23.95,0-19,10.45-47.34l5.47,3q-10.41,28.31-10.45,47.34,0,18,9.19,23.95.5.32,1,.61" transform="translate(-74.73 -7.5)"/><path d="M433.75,181.5l-5.47-3,.1-.28,5.47,3-.1.28" transform="translate(-74.73 -7.5)"/></g></g></g><g class="cls-2"><g class="cls-43"><g class="cls-2"><path d="M410.23,188.22l-5.47-3a1.08,1.08,0,0,1-.46-.74l5.47,3a1.08,1.08,0,0,0,.46.74" transform="translate(-74.73 -7.5)"/></g></g></g><g class="cls-2"><g class="cls-44"><g class="cls-2"><path d="M431,147.62l-5.47-3,.11-.06,5.47,3-.11.06" transform="translate(-74.73 -7.5)"/><path d="M431.15,147.56l-5.47-3a1.56,1.56,0,0,1,.45-.12q4.51-.63,21.28-4.47t25.38-6.23l5.47,3q-8.63,2.41-25.38,6.23t-21.28,4.47a1.56,1.56,0,0,0-.45.12" transform="translate(-74.73 -7.5)"/></g></g></g><g class="cls-2"><g class="cls-45"><g class="cls-2"><path d="M434.15,168.78l-5.47-3a74.55,74.55,0,0,0-1.75-13.19q-1.56-6.94-1.56-7.16a1.92,1.92,0,0,1,.08-.62l5.47,3a1.92,1.92,0,0,0-.08.62q0,.22,1.56,7.16a74.55,74.55,0,0,1,1.75,13.19" transform="translate(-74.73 -7.5)"/><path d="M430.92,147.81l-5.47-3,0-.07,5.47,3,0,.07" transform="translate(-74.73 -7.5)"/><path d="M430.95,147.73l-5.47-3,0,0,5.47,3,0,0" transform="translate(-74.73 -7.5)"/><path d="M431,147.69l-5.47-3,0,0,5.47,3,0,0" transform="translate(-74.73 -7.5)"/><path d="M431,147.66l-5.47-3,0,0,5.47,3,0,0" transform="translate(-74.73 -7.5)"/><path d="M431,147.64l-5.47-3,0,0,5.47,3,0,0" transform="translate(-74.73 -7.5)"/></g></g></g><g class="cls-2"><g class="cls-46"><g class="cls-2"><path d="M411.51,167.16l-5.47-3q1,.31,2,.58l5.47,3q-1-.26-2-.58" transform="translate(-74.73 -7.5)"/><path d="M413.48,167.74l-5.47-3q8.24,2.14,20.67,1l5.47,3q-12.42,1.1-20.67-1" transform="translate(-74.73 -7.5)"/></g></g></g><g class="cls-2"><g class="cls-47"><g class="cls-2"><path d="M409.77,187.49l-5.47-3a31,31,0,0,1-.13-4A60.22,60.22,0,0,1,406,164.19l5.47,3a60.22,60.22,0,0,0-1.87,16.28,31,31,0,0,0,.13,4" transform="translate(-74.73 -7.5)"/></g></g></g><path d="M479.35,136.52c.25,0,.39,0,.41,0q0,.38-5.08,10a169.75,169.75,0,0,0-9,19.5l4.65-.65q17.45-2.61,18-4.26a11.48,11.48,0,0,0,.52-3.36q0-4.94-5-8.3,12.53-9.14,16.84-10.11,1.29,2.18,1.28,6.9,0,2-.25,5.87t-.25,5.42q0,4.21,2.24,12.28a82.22,82.22,0,0,0,4.76,13.32q-2.89,1.88-5.76,3.69-4.52,2.77-6.71,3.09a2.17,2.17,0,0,1-1.84-.34q-.83-.47-3.75-7.52-2.79-6.54-6.28-6.35-1.78.11-21.48,2.87-1.3,1.3-3.38,14.65a173.22,173.22,0,0,0-2.44,27.28q0,26.29,10.89,24.75,5.74-.81,13-5.22t7.29-6.86a1.14,1.14,0,0,0-.68-1.09q-4.11-.45-13.88-3.81-9.08-4.56-9.07-14.59,0-4.66,4.88-8.29,5.2-3.83,14.17-5.09a68.6,68.6,0,0,1,15.18-.21Q517,201.79,517,212.34q0,4.66-3.51,12-10.65,22.09-50.8,29.8-5.82,1.12-6.84,1.26-15.87,2.23-23.39-2.62-9.21-5.94-9.19-23.95,0-19.13,10.56-47.62a140,140,0,0,0-23,7.07c-.64.11-.94-.18-1.1-.81a31,31,0,0,1-.13-4,60.22,60.22,0,0,1,1.87-16.28q8.68,2.85,22.64,1.62a74.55,74.55,0,0,0-1.75-13.19q-1.56-6.94-1.56-7.16c0-.44.07-.71.2-.81a1.37,1.37,0,0,1,.55-.18q4.51-.63,21.28-4.47t25.38-6.23Q479,136.57,479.35,136.52Z" transform="translate(-74.73 -7.5)"/><g class="cls-2"><g class="cls-48"><g class="cls-2"><path class="cls-49" d="M367.14,272.24l-5.47-3,0,0,5.47,3,0,0" transform="translate(-74.73 -7.5)"/><path class="cls-50" d="M367.16,272.19l-5.47-3a42.77,42.77,0,0,0,2.46-5.51l5.47,3a42.77,42.77,0,0,1-2.46,5.51" transform="translate(-74.73 -7.5)"/><path class="cls-51" d="M369.62,266.68l-5.47-3q4.59-12.5,4.63-33.09l5.47,3q0,20.59-4.63,33.09" transform="translate(-74.73 -7.5)"/></g></g></g><polygon class="cls-52" points="299.53 226.1 294.06 223.12 294.07 216.33 299.54 219.3 299.53 226.1"/><g class="cls-2"><g class="cls-53"><g class="cls-2"><path class="cls-51" d="M374.27,226.8l-5.47-3q-.35-9.16-3.56-10.91l5.47,3q3.21,1.75,3.56,10.91" transform="translate(-74.73 -7.5)"/></g></g></g><g class="cls-2"><g class="cls-54"><g class="cls-2"><path class="cls-41" d="M387,173.94l-5.47-3a9.19,9.19,0,0,1,3.6.16l5.47,3a9.19,9.19,0,0,0-3.6-.16" transform="translate(-74.73 -7.5)"/><path class="cls-40" d="M390.56,174.1l-5.47-3a8.11,8.11,0,0,1,1.56.58l5.47,3a8.11,8.11,0,0,0-1.56-.58" transform="translate(-74.73 -7.5)"/><path class="cls-55" d="M392.11,174.68l-5.47-3,.31.16,5.47,3-.31-.16" transform="translate(-74.73 -7.5)"/></g></g></g><g class="cls-2"><g class="cls-56"><g class="cls-2"><path class="cls-51" d="M345.82,227.18l-5.47-3q1.09-3.75,2.4-7.33l5.47,3q-1.31,3.58-2.4,7.33" transform="translate(-74.73 -7.5)"/><path class="cls-50" d="M348.22,219.85l-5.47-3A99.86,99.86,0,0,1,348.53,204l5.47,3a99.86,99.86,0,0,0-5.78,12.88" transform="translate(-74.73 -7.5)"/><path class="cls-49" d="M354,207l-5.47-3a93.45,93.45,0,0,1,5.8-9.41l5.47,3A93.45,93.45,0,0,0,354,207" transform="translate(-74.73 -7.5)"/><path class="cls-57" d="M359.79,197.56l-5.47-3a92,92,0,0,1,6.36-8.07l5.47,3a92,92,0,0,0-6.36,8.07" transform="translate(-74.73 -7.5)"/><path class="cls-58" d="M366.16,189.49l-5.47-3a94.19,94.19,0,0,1,7.59-7.66l5.47,3a94.19,94.19,0,0,0-7.59,7.66" transform="translate(-74.73 -7.5)"/><path class="cls-55" d="M373.75,181.83l-5.47-3q1.23-1.11,2.51-2.19,1.52-1.26,2.94-2.24l5.47,3q-1.42,1-2.94,2.24-1.28,1.08-2.51,2.19" transform="translate(-74.73 -7.5)"/><path class="cls-40" d="M379.21,177.4l-5.47-3a26.39,26.39,0,0,1,3.72-2.19l5.47,3a26.39,26.39,0,0,0-3.72,2.19" transform="translate(-74.73 -7.5)"/><path class="cls-41" d="M382.93,175.21l-5.47-3a14.1,14.1,0,0,1,4-1.27l5.47,3a14.1,14.1,0,0,0-4,1.27" transform="translate(-74.73 -7.5)"/></g></g></g><polygon class="cls-52" points="233.45 268.38 227.98 265.4 228.15 247.96 233.62 250.94 233.45 268.38"/><g class="cls-2"><g class="cls-59"><g class="cls-2"><path class="cls-40" d="M308.35,258.43l-5.47-3a10.63,10.63,0,0,1,1-.56l5.47,3a10.63,10.63,0,0,0-1,.56" transform="translate(-74.73 -7.5)"/><path class="cls-41" d="M309.38,257.88l-5.47-3a15.43,15.43,0,0,1,4.44-1.25,19.93,19.93,0,0,1,7.84.53l5.47,3a19.93,19.93,0,0,0-7.84-.53,15.43,15.43,0,0,0-4.44,1.25" transform="translate(-74.73 -7.5)"/><path class="cls-40" d="M321.65,257.16l-5.47-3q1.2.31,2.42.76l5.47,3q-1.22-.45-2.42-.76" transform="translate(-74.73 -7.5)"/></g></g></g><g class="cls-2"><g class="cls-60"><g class="cls-2"><path class="cls-51" d="M324.08,257.92l-5.47-3q-3.82-5.28-6.85-28-1.82-14.07-2.48-25-.22-3.76-2.86-5.2l5.47,3q2.65,1.44,2.86,5.2.66,10.91,2.48,25,3,22.68,6.85,28" transform="translate(-74.73 -7.5)"/></g></g></g><g class="cls-2"><g class="cls-61"><g class="cls-2"><path class="cls-51" d="M301.81,198.56l-5.47-3q-1.49-.81-1.48-6.11a14.24,14.24,0,0,1,.28-3.06l5.47,3a14.24,14.24,0,0,0-.28,3.06q0,5.3,1.48,6.11" transform="translate(-74.73 -7.5)"/></g></g></g><path class="cls-62" d="M387,173.94q8-1.12,11.88,10,3.19,9,3.17,24,0,5.76-.57,11.59-2,20.51-2,31.44,0,10.26,1.82,13.91,3.83,1.1,10.53,2.37c-.69,2-1.54,4.54-2.54,7.58l-42.05-2.58q7.06-13.09,7.11-38.64v-6.8q-.46-12-5.86-11.28a11.6,11.6,0,0,0-4.52,2.18q-11.44,7.81-16.26,29.31.12,7.14,6.25,26.06a66.56,66.56,0,0,0-31.25-3.14q-10.39,1.46-14.44,5.94l.17-17.44a14.15,14.15,0,0,1,5.47-1.81,21.13,21.13,0,0,1,10.26,1.29q-3.82-5.28-6.85-28-1.82-14.07-2.48-25-.34-5.85-6.56-6.09-2.05.07-6-.19-1.85-.32-1.84-6.23a14.24,14.24,0,0,1,.28-3.06q1.3.56,54.1-3.1-8.85,16.3-8.89,40.89,8.39-29,30.45-47.54Q382.37,174.58,387,173.94Z" transform="translate(-74.73 -7.5)"/><g class="cls-2"><g class="cls-63"><g class="cls-2"><path class="cls-40" d="M300.61,189.39l-5.47-3,.11,0,5.47,3-.11,0" transform="translate(-74.73 -7.5)"/><path class="cls-41" d="M300.73,189.42l-5.47-3q2.68.42,54-3.13l5.47,3q-51.31,3.54-54,3.13" transform="translate(-74.73 -7.5)"/></g></g></g><g class="cls-2"><g class="cls-64"><g class="cls-2"><path d="M247.29,278.09l-5.47-3,.54.28,5.47,3-.54-.28" transform="translate(-74.73 -7.5)"/><path d="M247.83,278.37l-5.47-3a15.09,15.09,0,0,0,2.88,1.07l5.47,3a15.09,15.09,0,0,1-2.88-1.07" transform="translate(-74.73 -7.5)"/><path d="M250.71,279.44l-5.47-3a18.49,18.49,0,0,0,6.31.45l1-.12a21.45,21.45,0,0,0,6.2-1.84l5.47,3a21.45,21.45,0,0,1-6.2,1.84l-1,.12a18.49,18.49,0,0,1-6.31-.45" transform="translate(-74.73 -7.5)"/><path d="M264.27,277.93l-5.47-3q.8-.38,1.58-.83.36-.2.64-.4l5.47,3q-.28.19-.64.4-.78.45-1.58.83" transform="translate(-74.73 -7.5)"/><path d="M266.49,276.71l-5.47-3a4.36,4.36,0,0,0,.44-.34l5.47,3a4.36,4.36,0,0,1-.44.34" transform="translate(-74.73 -7.5)"/><path d="M266.92,276.37l-5.47-3,.2-.2,5.47,3-.2.2" transform="translate(-74.73 -7.5)"/><path d="M267.13,276.16l-5.47-3,.12-.15,5.47,3-.12.15" transform="translate(-74.73 -7.5)"/><path d="M267.24,276l-5.47-3,.08-.12,5.47,3-.08.12" transform="translate(-74.73 -7.5)"/><path d="M267.32,275.89l-5.47-3,.05-.12,5.47,3-.05.12" transform="translate(-74.73 -7.5)"/><path d="M267.37,275.77l-5.47-3a.65.65,0,0,0,0-.22.51.51,0,0,0-.32-.45l5.47,3a.51.51,0,0,1,.32.45.65.65,0,0,1,0,.22" transform="translate(-74.73 -7.5)"/></g></g></g><g class="cls-2"><g class="cls-65"><g class="cls-2"><path d="M255.16,271.92l-5.47-3a20.68,20.68,0,0,1-3.19-2.14,14.92,14.92,0,0,1-5.66-12.16,8.45,8.45,0,0,1,.52-2.92l5.47,3a8.45,8.45,0,0,0-.52,2.92A14.92,14.92,0,0,0,252,269.79a20.68,20.68,0,0,0,3.19,2.14" transform="translate(-74.73 -7.5)"/><path d="M246.83,254.71l-5.47-3a8.93,8.93,0,0,1,.52-1.16l5.47,3a8.93,8.93,0,0,0-.52,1.16" transform="translate(-74.73 -7.5)"/><path d="M247.35,253.55l-5.47-3a10,10,0,0,1,.62-1l5.47,3a10,10,0,0,0-.62,1" transform="translate(-74.73 -7.5)"/><path d="M248,252.55l-5.47-3a11.48,11.48,0,0,1,.79-1l5.47,3a11.48,11.48,0,0,0-.79,1" transform="translate(-74.73 -7.5)"/><path d="M248.77,251.55l-5.47-3a13.86,13.86,0,0,1,1.12-1.12l5.47,3a13.86,13.86,0,0,0-1.12,1.12" transform="translate(-74.73 -7.5)"/><path d="M249.89,250.42l-5.47-3a17.48,17.48,0,0,1,1.41-1.14l.38-.27,5.47,3-.38.27a17.48,17.48,0,0,0-1.41,1.14" transform="translate(-74.73 -7.5)"/><path d="M251.67,249l-5.47-3a21.29,21.29,0,0,1,3-1.74l5.47,3a21.29,21.29,0,0,0-3,1.74" transform="translate(-74.73 -7.5)"/><path d="M254.72,247.28l-5.47-3a35.18,35.18,0,0,1,10.09-2.8,61.64,61.64,0,0,1,12.45-.42,38.76,38.76,0,0,1,7,1.06l5.47,3a38.76,38.76,0,0,0-7-1.06,61.64,61.64,0,0,0-12.45.42,35.18,35.18,0,0,0-10.09,2.8" transform="translate(-74.73 -7.5)"/><path d="M284.28,245.11l-5.47-3a21.37,21.37,0,0,1,4.08,1.47l5.47,3a21.37,21.37,0,0,0-4.08-1.47" transform="translate(-74.73 -7.5)"/><path d="M288.36,246.58l-5.47-3,.6.31,5.47,3-.6-.31" transform="translate(-74.73 -7.5)"/></g></g></g><g class="cls-2"><g class="cls-66"><g class="cls-2"><path d="M260.33,225.46l-5.47-3a32.31,32.31,0,0,0,9.1-2.43l5.47,3a32.31,32.31,0,0,1-9.1,2.43" transform="translate(-74.73 -7.5)"/><path d="M269.43,223l-5.47-3a14.6,14.6,0,0,0,2.1-1.19l5.47,3a14.6,14.6,0,0,1-2.1,1.19" transform="translate(-74.73 -7.5)"/><path d="M271.53,221.84l-5.47-3a10.75,10.75,0,0,0,1.07-.84l5.47,3a10.75,10.75,0,0,1-1.07.84" transform="translate(-74.73 -7.5)"/><path d="M272.6,221l-5.47-3a9,9,0,0,0,.73-.73l5.47,3a9,9,0,0,1-.73.73" transform="translate(-74.73 -7.5)"/><path d="M273.33,220.27l-5.47-3a7.92,7.92,0,0,0,.55-.7l5.47,3a7.92,7.92,0,0,1-.55.7" transform="translate(-74.73 -7.5)"/><path d="M273.88,219.57l-5.47-3a7.3,7.3,0,0,0,.46-.74l5.47,3a7.3,7.3,0,0,1-.46.74" transform="translate(-74.73 -7.5)"/><path d="M274.34,218.83l-5.47-3a7,7,0,0,0,.41-.92l5.47,3a7,7,0,0,1-.41.92" transform="translate(-74.73 -7.5)"/><path d="M274.75,217.91l-5.47-3a7.53,7.53,0,0,0,.44-2.58q0-3.47-3.5-5.38l5.47,3q3.51,1.91,3.5,5.38a7.53,7.53,0,0,1-.44,2.58" transform="translate(-74.73 -7.5)"/></g></g></g><g class="cls-2"><g class="cls-67"><g class="cls-2"><path d="M235.17,224.73l-5.47-3,.34.18,5.47,3-.34-.18" transform="translate(-74.73 -7.5)"/><path d="M235.51,224.91l-5.47-3a13.14,13.14,0,0,0,2.51.9l5.47,3a13.14,13.14,0,0,1-2.51-.9" transform="translate(-74.73 -7.5)"/><path d="M238,225.81l-5.47-3q7,1.81,22.31-.34l5.47,3q-15.31,2.15-22.31.34" transform="translate(-74.73 -7.5)"/></g></g></g><path d="M298,208.94q3.34,7.44,3.32,19.69,0,3.76-.3,8.9c0,.47-.14.72-.43.76-8-.79-20.69-1.48-38.34-2.11q-23.52-.75-24.62-.6-1.57.22-1.6,14.11,0,17.49,7.06,25.14,5.38,5.82,13.87,5.06l1-.12a21.37,21.37,0,0,0,7.78-2.66c1.05-.59,1.57-1.11,1.57-1.55s-.27-.51-.82-.62q-9-.52-14.63-5.14a14.92,14.92,0,0,1-5.66-12.16q0-4.72,5-8.34t13.51-4.81a61.64,61.64,0,0,1,12.45-.42q17.64,1.2,17.62,12.81a16.8,16.8,0,0,1-1.65,6.87q-4.6,9.94-11.38,14.89-9.86,7.14-30,10-23.13,3.25-36.91-13.27-11.81-14.05-11.77-33.85.07-36.55,55.41-44.33Q290.69,192.63,298,208.94Zm-37.71,16.52q14.84-2.09,14.86-10.13,0-4.14-5-6.06t-13.2-.76a68.76,68.76,0,0,0-16.63,4.26q-8.28,3.38-8.29,7.15,0,9.52,28.24,5.55" transform="translate(-74.73 -7.5)"/><g class="cls-2"><g class="cls-68"><g class="cls-2"><path d="M226.2,284.71l-5.47-3a38.75,38.75,0,0,1-11.24-9.39q-11.81-14.05-11.77-33.85a39.52,39.52,0,0,1,2.3-13.64l5.47,3a39.52,39.52,0,0,0-2.3,13.64q0,19.78,11.77,33.85a38.75,38.75,0,0,0,11.24,9.39" transform="translate(-74.73 -7.5)"/><path d="M205.5,227.83l-5.47-3a34,34,0,0,1,2-4.36l5.47,3a34,34,0,0,0-2,4.36" transform="translate(-74.73 -7.5)"/><path d="M207.45,223.47l-5.47-3a34.11,34.11,0,0,1,2.14-3.47l5.47,3a34.11,34.11,0,0,0-2.14,3.47" transform="translate(-74.73 -7.5)"/><path d="M209.59,220l-5.47-3a35.69,35.69,0,0,1,2.48-3.14l5.47,3a35.69,35.69,0,0,0-2.48,3.14" transform="translate(-74.73 -7.5)"/><path d="M212.06,216.87l-5.47-3a38.89,38.89,0,0,1,3.17-3.19l5.47,3a38.89,38.89,0,0,0-3.17,3.19" transform="translate(-74.73 -7.5)"/><path d="M215.23,213.68l-5.47-3a44.72,44.72,0,0,1,4.47-3.51l5.47,3a44.72,44.72,0,0,0-4.47,3.51" transform="translate(-74.73 -7.5)"/><path d="M219.7,210.17l-5.47-3a57.1,57.1,0,0,1,8.22-4.67l5.47,3a57.1,57.1,0,0,0-8.22,4.67" transform="translate(-74.73 -7.5)"/><path d="M227.91,205.49l-5.47-3q12.29-5.77,30.69-8.36,15.07-2.12,24.68.36l5.47,3q-9.61-2.48-24.68-.36-18.4,2.59-30.69,8.36" transform="translate(-74.73 -7.5)"/><path d="M283.29,197.5l-5.47-3a28.25,28.25,0,0,1,5.4,2l5.47,3a28.25,28.25,0,0,0-5.4-2" transform="translate(-74.73 -7.5)"/><path d="M288.7,199.46l-5.47-3,.87.45,5.47,3-.87-.45" transform="translate(-74.73 -7.5)"/></g></g></g></g><g class="cls-2"><polygon points="365.14 98.48 359.68 95.51 372.87 95.9 378.34 98.88 365.14 98.48"/><g class="cls-2"><g class="cls-69"><g class="cls-2"><path d="M410.73,121.09l-5.47-3,.2.05,5.47,3-.2-.05" transform="translate(-74.73 -7.5)"/><path d="M410.93,121.14l-5.47-3a45.24,45.24,0,0,0,6.37,1l5.47,3a45.24,45.24,0,0,1-6.37-1" transform="translate(-74.73 -7.5)"/></g></g></g><g class="cls-2"><g class="cls-70"><g class="cls-2"><path d="M421,115.46l-5.47-3,.16-.23,5.47,3-.16.23" transform="translate(-74.73 -7.5)"/><path d="M421.2,115.24l-5.47-3a36.77,36.77,0,0,0,2.23-3.67l5.47,3a36.77,36.77,0,0,1-2.23,3.67" transform="translate(-74.73 -7.5)"/><path d="M423.43,111.56l-5.47-3a95.56,95.56,0,0,0,5.13-11.77l.11-.31,5.47,3-.11.31a95.56,95.56,0,0,1-5.13,11.77" transform="translate(-74.73 -7.5)"/><path d="M428.68,99.48l-5.47-3q4.21-11.44,4.22-17.68,0-3.71-1.64-4.61l5.47,3q1.64.89,1.64,4.61,0,6.23-4.22,17.68" transform="translate(-74.73 -7.5)"/></g></g></g><g class="cls-2"><g class="cls-71"><g class="cls-2"><path d="M410.79,88l-5.47-3q.63-1.24,1.27-2.45l5.47,3q-.65,1.2-1.27,2.45" transform="translate(-74.73 -7.5)"/><path d="M412.07,85.6l-5.47-3a90.21,90.21,0,0,1,5.56-9.07l5.47,3a90.21,90.21,0,0,0-5.56,9.07" transform="translate(-74.73 -7.5)"/><path d="M417.63,76.52l-5.47-3q1.65-2.35,3.39-4.47.59-.71,1.19-1.39l5.47,3q-.6.68-1.19,1.39-1.75,2.13-3.39,4.47" transform="translate(-74.73 -7.5)"/><path d="M422.22,70.66l-5.47-3a51.47,51.47,0,0,1,4.13-4.19l5.47,3a51.47,51.47,0,0,0-4.13,4.19" transform="translate(-74.73 -7.5)"/><path d="M426.34,66.47l-5.47-3a38.63,38.63,0,0,1,3.86-3.07l5.47,3a38.63,38.63,0,0,0-3.86,3.07" transform="translate(-74.73 -7.5)"/><path d="M430.2,63.4l-5.47-3A29.82,29.82,0,0,1,429,58l5.47,3a29.82,29.82,0,0,0-4.25,2.47" transform="translate(-74.73 -7.5)"/><path d="M434.45,60.93,429,58a23.29,23.29,0,0,1,6.7-2,16.21,16.21,0,0,1,6.36.26l5.47,3a16.21,16.21,0,0,0-6.36-.26,23.29,23.29,0,0,0-6.7,2" transform="translate(-74.73 -7.5)"/><path d="M447.52,59.15l-5.47-3a12.69,12.69,0,0,1,2.43.9l5.47,3a12.69,12.69,0,0,0-2.43-.9" transform="translate(-74.73 -7.5)"/><path d="M449.94,60l-5.47-3,.46.24,5.47,3-.46-.24" transform="translate(-74.73 -7.5)"/></g></g></g><g class="cls-2"><g class="cls-72"><g class="cls-2"><path d="M389.07,124.65l-5.47-3q.59-1.33,1.11-2.74l5.47,3q-.52,1.41-1.11,2.74" transform="translate(-74.73 -7.5)"/><path d="M390.18,121.92l-5.47-3q3.55-9.67,3.58-23,0-6.94-.22-8.73-.58-4.49-2.42-5.49l5.47,3q1.84,1,2.42,5.49.24,1.79.22,8.73,0,13.36-3.58,23" transform="translate(-74.73 -7.5)"/></g></g></g><g class="cls-2"><g class="cls-73"><g class="cls-2"><path d="M402.44,55.88l-5.47-3a6.09,6.09,0,0,1,2.37.1l5.47,3a6.09,6.09,0,0,0-2.37-.1" transform="translate(-74.73 -7.5)"/><path d="M404.81,56l-5.47-3a5.11,5.11,0,0,1,1,.37l5.47,3a5.11,5.11,0,0,0-1-.37" transform="translate(-74.73 -7.5)"/><path d="M405.81,56.34l-5.47-3,.19.1,5.47,3-.19-.1" transform="translate(-74.73 -7.5)"/></g></g></g><g class="cls-2"><g class="cls-74"><g class="cls-2"><path d="M373,94.3l-5.47-3q.88-3.21,2-6.24l5.47,3q-1.11,3-2,6.24" transform="translate(-74.73 -7.5)"/><path d="M375,88.06l-5.47-3a68.61,68.61,0,0,1,4-8.83l5.47,3a68.61,68.61,0,0,0-4,8.83" transform="translate(-74.73 -7.5)"/><path d="M378.93,79.23l-5.47-3a64.18,64.18,0,0,1,4-6.46l5.47,3a64.18,64.18,0,0,0-4,6.46" transform="translate(-74.73 -7.5)"/><path d="M382.92,72.76l-5.47-3a63.17,63.17,0,0,1,4.37-5.54l5.47,3a63.17,63.17,0,0,0-4.37,5.54" transform="translate(-74.73 -7.5)"/><path d="M387.29,67.22l-5.47-3A64.66,64.66,0,0,1,387,59l5.47,3a64.66,64.66,0,0,0-5.22,5.26" transform="translate(-74.73 -7.5)"/><path d="M392.5,62,387,59q1.23-1.11,2.53-2.17,1-.8,1.9-1.44l5.47,3Q396,59,395,59.79q-1.3,1.06-2.53,2.17" transform="translate(-74.73 -7.5)"/><path d="M396.94,58.35l-5.47-3a19.09,19.09,0,0,1,2.69-1.58l5.47,3a19.09,19.09,0,0,0-2.69,1.58" transform="translate(-74.73 -7.5)"/><path d="M399.63,56.77l-5.47-3A9.88,9.88,0,0,1,397,52.9l5.47,3a9.88,9.88,0,0,0-2.81.89" transform="translate(-74.73 -7.5)"/></g></g></g><g class="cls-2"><g class="cls-75"><g class="cls-2"><path d="M345.63,116l-5.47-3,.45-.23,5.47,3-.45.23" transform="translate(-74.73 -7.5)"/><path d="M346.07,115.76l-5.47-3a11.55,11.55,0,0,1,3.33-.93,15.16,15.16,0,0,1,6,.34l5.47,3a15.16,15.16,0,0,0-6-.34,11.55,11.55,0,0,0-3.33.93" transform="translate(-74.73 -7.5)"/><path d="M355.38,115.17l-5.47-3q.61.16,1.22.37l5.47,3q-.61-.21-1.22-.37" transform="translate(-74.73 -7.5)"/></g></g></g><polygon points="270.69 120.63 265.21 117.65 265.43 105.52 270.9 108.5 270.69 120.63"/><g class="cls-2"><g class="cls-76"><g class="cls-2"><path d="M356.6,115.54l-5.47-3q-4-10-7.23-35.45A3.92,3.92,0,0,0,342,74l5.47,3a3.92,3.92,0,0,1,1.86,3.14q3.18,25.48,7.23,35.45" transform="translate(-74.73 -7.5)"/></g></g></g><g class="cls-2"><g class="cls-77"><g class="cls-2"><path d="M339.09,70.68l-5.47-3q5.52-.78,38.78-7.38l5.47,3q-33.27,6.61-38.78,7.38" transform="translate(-74.73 -7.5)"/></g></g></g><g class="cls-2"><g class="cls-78"><g class="cls-2"><path d="M339.4,76.83l-5.47-3q-1.33-.72-1.33-6l5.47,3q0,5.28,1.33,6" transform="translate(-74.73 -7.5)"/></g></g></g><path d="M402.44,55.88q9-1.27,9,20.54A96.36,96.36,0,0,1,410.79,88,86.64,86.64,0,0,1,421,72q9.74-11.7,20.13-13.16,7.07-1,11.69,3.13t4.62,11.64q0,15.08-17.61,32.32l13.2.39a48,48,0,0,1,2.75,4.2q-3.77.32-14.07,1.77-9.53,1.34-20.7,3.12,3.54-4.93,7.52-15.67,4.32-11.67,4.33-18c0-3.54-1.12-5.17-3.37-4.85q-5.52.78-11.77,11.68a90.24,90.24,0,0,0-8.26,19.58q0,10.38,1.23,12.87a42.69,42.69,0,0,0,6.57,1,51.85,51.85,0,0,0-1.89,5.38l-26.34-2.82q4.66-10.46,4.68-25.76,0-6.94-.22-8.73-.81-6.2-4-5.75a8.25,8.25,0,0,0-3.14,1.48q-8,5.47-11.74,21.64.09,4.94,4.41,18.21a47.2,47.2,0,0,0-22.67-2q-8,1.12-11,4.36l.21-12.13a11,11,0,0,1,3.77-1.16,15.27,15.27,0,0,1,7.2.71q-4-10-7.23-35.45-.49-3.43-3.67-3.61c-2,.17-3.92.33-5.85.46-1.19,0-1.78-2-1.77-6.12l1-.14q5.52-.78,38.78-7.38a65.44,65.44,0,0,0-5.17,25.93A35.83,35.83,0,0,0,373,94.3Q378.78,73,395,59.79,399.3,56.32,402.44,55.88Z" transform="translate(-74.73 -7.5)"/><polygon points="263.34 63.32 257.87 60.35 258.89 60.2 264.36 63.18 263.34 63.32"/><g class="cls-2"><g class="cls-79"><g class="cls-2"><path d="M300.68,121.67l-5.47-3,.12.06,5.47,3-.12-.06" transform="translate(-74.73 -7.5)"/><path d="M300.8,121.73l-5.47-3a5.8,5.8,0,0,0,1.09.38l5.47,3a5.8,5.8,0,0,1-1.09-.38" transform="translate(-74.73 -7.5)"/><path d="M301.89,122.11l-5.47-3a19.16,19.16,0,0,0,3.11.47,95.54,95.54,0,0,0,13-.14l5.47,3a95.54,95.54,0,0,1-13,.14,19.16,19.16,0,0,1-3.11-.47" transform="translate(-74.73 -7.5)"/></g></g></g><g class="cls-2"><g class="cls-80"><g class="cls-2"><path d="M307.46,106.21l-5.47-3a4.24,4.24,0,0,1-2.23-4.06,16.74,16.74,0,0,1,1-5.78l5.47,3a16.74,16.74,0,0,0-1,5.78,4.24,4.24,0,0,0,2.23,4.06" transform="translate(-74.73 -7.5)"/><path d="M306.25,96.37l-5.47-3a17.24,17.24,0,0,1,1-2.23l5.47,3a17.24,17.24,0,0,0-1,2.23" transform="translate(-74.73 -7.5)"/><path d="M307.26,94.14l-5.47-3a18.94,18.94,0,0,1,1.18-1.9l5.47,3a18.94,18.94,0,0,0-1.18,1.9" transform="translate(-74.73 -7.5)"/><path d="M308.44,92.24l-5.47-3a21.56,21.56,0,0,1,1.49-1.89l5.47,3a21.56,21.56,0,0,0-1.49,1.89" transform="translate(-74.73 -7.5)"/><path d="M309.93,90.35l-5.47-3q.36-.4.74-.8.65-.68,1.36-1.31l5.47,3q-.71.64-1.36,1.31-.38.4-.74.8" transform="translate(-74.73 -7.5)"/><path d="M312,88.23l-5.47-3A28.24,28.24,0,0,1,309.39,83l5.47,3A28.24,28.24,0,0,0,312,88.23" transform="translate(-74.73 -7.5)"/><path d="M314.86,86l-5.47-3A32.44,32.44,0,0,1,314,80.37l5.47,3A32.44,32.44,0,0,0,314.86,86" transform="translate(-74.73 -7.5)"/><path d="M319.49,83.35l-5.47-3q1-.49,2.12-.92l.05,0,5.47,3-.05,0q-1.09.44-2.12.92" transform="translate(-74.73 -7.5)"/><path d="M321.67,82.4l-5.47-3,.14-.08,5.47,3-.14.08" transform="translate(-74.73 -7.5)"/><path d="M321.8,82.32l-5.47-3,.09-.07,5.47,3-.09.07" transform="translate(-74.73 -7.5)"/><path d="M321.89,82.26l-5.47-3,.07-.07,5.47,3-.07.07" transform="translate(-74.73 -7.5)"/><path d="M322,82.19l-5.47-3,.06-.07,5.47,3-.06.07" transform="translate(-74.73 -7.5)"/><path d="M322,82.12l-5.47-3,.05-.09,5.47,3-.05.09" transform="translate(-74.73 -7.5)"/><path d="M322.07,82l-5.47-3,.05-.12,5.47,3-.05.12" transform="translate(-74.73 -7.5)"/><path d="M322.12,81.91l-5.47-3a1.33,1.33,0,0,0,.07-.46c0-.65-.52-1.25-1.56-1.81l5.47,3c1,.56,1.56,1.16,1.56,1.81a1.33,1.33,0,0,1-.07.46" transform="translate(-74.73 -7.5)"/></g></g></g><g class="cls-2"><g class="cls-81"><g class="cls-2"><path d="M270.81,132l-5.47-3a10.48,10.48,0,0,0,.93-.74l5.47,3a10.48,10.48,0,0,1-.93.74" transform="translate(-74.73 -7.5)"/><path d="M271.74,131.3l-5.47-3a7.62,7.62,0,0,0,.61-.62l5.47,3a7.62,7.62,0,0,1-.61.62" transform="translate(-74.73 -7.5)"/><path d="M272.35,130.68l-5.47-3a5.93,5.93,0,0,0,.41-.52l5.47,3a5.93,5.93,0,0,1-.41.52" transform="translate(-74.73 -7.5)"/><path d="M272.76,130.16l-5.47-3a4.87,4.87,0,0,0,.3-.49l5.47,3a4.87,4.87,0,0,1-.3.49" transform="translate(-74.73 -7.5)"/><path d="M273.07,129.67l-5.47-3a4.13,4.13,0,0,0,.24-.53l5.47,3a4.13,4.13,0,0,1-.24.53" transform="translate(-74.73 -7.5)"/><path d="M273.31,129.14l-5.47-3a3.58,3.58,0,0,0,.21-1l5.47,3a3.58,3.58,0,0,1-.21,1" transform="translate(-74.73 -7.5)"/></g></g></g><g class="cls-2"><g class="cls-82"><g class="cls-2"><path d="M266.77,143.45l-5.47-3a20,20,0,0,1-2.41-7.07l5.47,3a20,20,0,0,0,2.41,7.07" transform="translate(-74.73 -7.5)"/></g></g></g><g class="cls-2"><g class="cls-83"><g class="cls-2"><path d="M264.37,136.39l-5.47-3a.75.75,0,0,1,0-.39l5.47,3a.75.75,0,0,0,0,.39" transform="translate(-74.73 -7.5)"/><path d="M264.4,136l-5.47-3,0-.09,5.47,3,0,.09" transform="translate(-74.73 -7.5)"/><path d="M264.44,135.9l-5.47-3,0-.08,5.47,3,0,.08" transform="translate(-74.73 -7.5)"/><path d="M264.49,135.82l-5.47-3,.06-.08,5.47,3-.06.08" transform="translate(-74.73 -7.5)"/><path d="M264.55,135.74l-5.47-3,.09-.09,5.47,3-.09.09" transform="translate(-74.73 -7.5)"/><path d="M264.64,135.66l-5.47-3,.14-.11,5.47,3-.14.11" transform="translate(-74.73 -7.5)"/><path d="M264.77,135.55l-5.47-3,.12-.08q5.53-3.26,5.89-3.42l5.47,3q-.35.17-5.89,3.42l-.12.08" transform="translate(-74.73 -7.5)"/><path d="M270.78,132l-5.47-3h0l5.47,3h0" transform="translate(-74.73 -7.5)"/></g></g></g><g class="cls-2"><g class="cls-84"><g class="cls-2"><path d="M293,82.17l-5.47-3,.16-.18,5.47,3-.16.18" transform="translate(-74.73 -7.5)"/><path d="M293.15,82l-5.47-3a30,30,0,0,1,2.42-2.44l5.47,3A30,30,0,0,0,293.15,82" transform="translate(-74.73 -7.5)"/><path d="M295.57,79.55l-5.47-3a29.78,29.78,0,0,1,3-2.36l5.47,3a29.78,29.78,0,0,0-3,2.36" transform="translate(-74.73 -7.5)"/><path d="M298.56,77.18l-5.47-3a31.38,31.38,0,0,1,4.48-2.58l5.47,3a31.38,31.38,0,0,0-4.48,2.58" transform="translate(-74.73 -7.5)"/><path d="M303,74.61l-5.47-3a39.8,39.8,0,0,1,11.48-3.3,31,31,0,0,1,12,.36l5.47,3a31,31,0,0,0-12-.36A39.8,39.8,0,0,0,303,74.61" transform="translate(-74.73 -7.5)"/><path d="M326.56,71.67l-5.47-3A19.21,19.21,0,0,1,324.77,70l5.47,3a19.21,19.21,0,0,0-3.69-1.35" transform="translate(-74.73 -7.5)"/><path d="M330.24,73l-5.47-3,.64.33,5.47,3-.64-.33" transform="translate(-74.73 -7.5)"/></g></g></g><g class="cls-2"><g class="cls-85"><g class="cls-2"><path d="M273.52,128.16l-5.47-3q.63-5.56,1.28-11.09,1.13-10.69,1.14-16.49c0-4.18-.43-6.53-1.29-7.07l5.47,3c.86.54,1.3,2.89,1.29,7.07q0,5.8-1.14,16.49-.63,5.52-1.28,11.09" transform="translate(-74.73 -7.5)"/></g></g></g><g class="cls-2"><g class="cls-86"><g class="cls-2"><path d="M274.65,93.51l-5.47-3-.31-.19,5.47,3,.31.19" transform="translate(-74.73 -7.5)"/></g></g></g><g class="cls-2"><g class="cls-87"><g class="cls-2"><path d="M264.9,82.25l-5.47-3a28.53,28.53,0,0,0,8.32,0,31.85,31.85,0,0,0,9.15-2.83l5.47,3a31.85,31.85,0,0,1-9.15,2.83,28.53,28.53,0,0,1-8.32,0" transform="translate(-74.73 -7.5)"/><path d="M282.37,79.46l-5.47-3a47.17,47.17,0,0,0,6.7-3.91l5.47,3a47.17,47.17,0,0,1-6.7,3.91" transform="translate(-74.73 -7.5)"/><path d="M289.07,75.55l-5.47-3a66.27,66.27,0,0,0,5.54-4.31l5.47,3a66.27,66.27,0,0,1-5.54,4.31" transform="translate(-74.73 -7.5)"/></g></g></g><path d="M294.61,71.24Q294,75.45,293,82.17q7.75-8.92,21.53-10.86Q333.24,68.68,339.16,83a20.68,20.68,0,0,1,1.72,7.48q0,7.31-12.3,12.48a51.63,51.63,0,0,1-12.87,3.84q-10.49,1.47-10.48-4.68a17.75,17.75,0,0,1,5.44-12.61,30.77,30.77,0,0,1,10.94-7.12,1,1,0,0,0,.58-1c0-.8-.81-1.54-2.41-2.22a12.23,12.23,0,0,0-6.38-.62,20.84,20.84,0,0,0-11.57,5.59A19.38,19.38,0,0,0,295.67,99q0,7.41,4.31,22c.25.83,1.94,1.38,5,1.64a95.54,95.54,0,0,0,13-.14q-.69,3.38-1.66,8.16-1.89.16-5.57.68a178.49,178.49,0,0,0-44,12.18,20,20,0,0,1-2.41-7.07.86.86,0,0,1,.53-.91q5.81-3.42,5.91-3.43,2.56-1.83,2.71-3.88.63-5.56,1.28-11.09,1.13-10.69,1.14-16.49c0-4.18-.43-6.53-1.29-7.07a6.57,6.57,0,0,0-4.64-.65,28.69,28.69,0,0,0-4,1.08,2.19,2.19,0,0,1-.39.1q-.38.05-.38-.2c0-.52-.2-2.38-.6-5.58s-.59-5-.59-5.37a.55.55,0,0,1,.5-.63,1.29,1.29,0,0,1,.32,0,28.53,28.53,0,0,0,8.32,0Q283.47,80.84,294.61,71.24Z" transform="translate(-74.73 -7.5)"/><g class="cls-2"><g class="cls-88"><g class="cls-2"><path d="M265.36,94l-5.47-3a.18.18,0,0,1-.09-.18c0-.52-.2-2.38-.6-5.58s-.59-5-.59-5.37a.87.87,0,0,1,0-.3l5.47,3a.87.87,0,0,0,0,.3q0,.58.59,5.37c.39,3.19.6,5.06.6,5.58a.18.18,0,0,0,.09.18" transform="translate(-74.73 -7.5)"/><path d="M264.13,82.59l-5.47-3,0-.07,5.47,3,0,.07" transform="translate(-74.73 -7.5)"/><path d="M264.16,82.52l-5.47-3,0,0,5.47,3,0,0" transform="translate(-74.73 -7.5)"/><path d="M264.19,82.47l-5.47-3,0,0,5.47,3,0,0" transform="translate(-74.73 -7.5)"/><path d="M264.22,82.42l-5.47-3,0,0,5.47,3,0,0" transform="translate(-74.73 -7.5)"/><path d="M264.26,82.39l-5.47-3,0,0,5.47,3,0,0" transform="translate(-74.73 -7.5)"/><path d="M264.31,82.35l-5.47-3,.07,0,5.47,3-.07,0" transform="translate(-74.73 -7.5)"/><path d="M264.38,82.31l-5.47-3a.68.68,0,0,1,.2-.06,1.29,1.29,0,0,1,.32,0l5.47,3a1.29,1.29,0,0,0-.32,0,.68.68,0,0,0-.2.06" transform="translate(-74.73 -7.5)"/></g></g></g></g><g class="cls-2"><g class="cls-2"><g class="cls-89"><g class="cls-2"><path d="M263.79,138.29l-5.47-3-.19-.11,5.47,3,.19.11" transform="translate(-74.73 -7.5)"/></g></g></g><g class="cls-2"><g class="cls-90"><g class="cls-2"><path d="M250.55,127.42l-5.47-3q.43-.35.88-.66l5.47,3q-.45.31-.88.66" transform="translate(-74.73 -7.5)"/><path d="M251.43,126.76l-5.47-3A14.43,14.43,0,0,1,248,122.6l5.47,3a14.43,14.43,0,0,0-2.06,1.19" transform="translate(-74.73 -7.5)"/><path d="M253.49,125.57l-5.47-3a16.13,16.13,0,0,1,4.66-1.36,15.18,15.18,0,0,1,4.31,0l5.47,3a15.18,15.18,0,0,0-4.31,0,16.13,16.13,0,0,0-4.66,1.36" transform="translate(-74.73 -7.5)"/></g></g></g><g class="cls-2"><g class="cls-91"><g class="cls-2"><path d="M230.21,148.59l-5.47-3a82.36,82.36,0,0,0,1.71-11.93c0-.46-.06-.73-.18-.79l5.47,3c.12.06.18.33.18.79a82.36,82.36,0,0,1-1.71,11.93" transform="translate(-74.73 -7.5)"/></g></g></g><g class="cls-2"><g class="cls-92"><g class="cls-2"><path d="M228.57,121.85l-5.47-3a36.07,36.07,0,0,0,3.39-2.66l5.47,3a36.07,36.07,0,0,1-3.39,2.66" transform="translate(-74.73 -7.5)"/><path d="M232,119.19l-5.47-3a20.06,20.06,0,0,0,1.62-1.62l5.47,3a20.06,20.06,0,0,1-1.62,1.62" transform="translate(-74.73 -7.5)"/><path d="M233.58,117.57l-5.47-3a13,13,0,0,0,.89-1.13l5.47,3a13,13,0,0,1-.89,1.13" transform="translate(-74.73 -7.5)"/><path d="M234.47,116.44l-5.47-3a9.14,9.14,0,0,0,.57-.92l5.47,3a9.14,9.14,0,0,1-.57.92" transform="translate(-74.73 -7.5)"/><path d="M235,115.52l-5.47-3a6.72,6.72,0,0,0,.39-.86l5.47,3a6.72,6.72,0,0,1-.39.86" transform="translate(-74.73 -7.5)"/><path d="M235.44,114.66l-5.47-3a4.63,4.63,0,0,0,.3-1.59,2.54,2.54,0,0,0-1.58-2.23l5.47,3a2.54,2.54,0,0,1,1.58,2.23,4.63,4.63,0,0,1-.3,1.59" transform="translate(-74.73 -7.5)"/></g></g></g><g class="cls-2"><g class="cls-93"><g class="cls-2"><path d="M228.25,84.53l-5.47-3q20.73-6.32,30.31-10.84l5.47,3Q249,78.21,228.25,84.53" transform="translate(-74.73 -7.5)"/><path d="M258.56,73.7l-5.47-3q1.42-.67,2.59-1.3l5.47,3q-1.17.63-2.59,1.3" transform="translate(-74.73 -7.5)"/></g></g></g><g class="cls-2"><g class="cls-94"><g class="cls-2"><path d="M233,99.47l-5.47-3a26.86,26.86,0,0,0-1.34-7.17,31.58,31.58,0,0,0-3.37-7.77l5.47,3a31.58,31.58,0,0,1,3.37,7.77A26.86,26.86,0,0,1,233,99.47" transform="translate(-74.73 -7.5)"/></g></g></g><g class="cls-2"><g class="cls-95"><g class="cls-2"><path d="M196.81,127.21l-5.47-3,.25.13,5.47,3-.25-.13" transform="translate(-74.73 -7.5)"/><path d="M197.06,127.33l-5.47-3a10.49,10.49,0,0,0,2,.71l5.47,3a10.49,10.49,0,0,1-2-.71" transform="translate(-74.73 -7.5)"/><path d="M199,128l-5.47-3q.74.19,1.62.34a41.54,41.54,0,0,0,12.29-.16,33.73,33.73,0,0,0,9.73-2.95l5.47,3a33.73,33.73,0,0,1-9.73,2.95,41.54,41.54,0,0,1-12.29.16q-.88-.15-1.62-.34" transform="translate(-74.73 -7.5)"/><path d="M222.68,125.27l-5.47-3a41.18,41.18,0,0,0,5.87-3.4l5.47,3a41.18,41.18,0,0,1-5.87,3.4" transform="translate(-74.73 -7.5)"/><path d="M228.54,121.87l-5.47-3,0,0,5.47,3,0,0" transform="translate(-74.73 -7.5)"/></g></g></g><path d="M262.46,124.18l1.33,14.11c-1.52-.93-4-1.16-7.4-.68a57.14,57.14,0,0,0-14,4.16,51.85,51.85,0,0,0-12.19,6.82,82.36,82.36,0,0,0,1.71-11.93c0-.56-.08-.83-.26-.81a2.38,2.38,0,0,0-.66.52,42.76,42.76,0,0,1-19.41,11.49,74,74,0,0,1-9.09,2q-11,1.55-15.8-2.84-4.29-3.93-4.28-13.33a77.56,77.56,0,0,1,.89-10.93,47.08,47.08,0,0,1,7.77-20.39q7.18-10,18.34-11.61,12.09-1.7,23.53,8.7a26.86,26.86,0,0,0-1.34-7.17,31.58,31.58,0,0,0-3.37-7.77q23.8-7.26,32.9-12.13a24.19,24.19,0,0,1,.86,6.5c0,1.82-.2,2.95-.58,3.43q-7.12,3.61-7.12,5.69c0,1.25,0,3.05.13,5.51s.14,4.35.13,5.67q0,16.76-4,28.22a16.2,16.2,0,0,1,11.91-3.24Zm-33.89-2.33q7.16-5,7.17-8.78,0-2.19-4.05-3.09a32.32,32.32,0,0,0-11.21,0,48,48,0,0,0-17.42,6.1q-8.13,4.73-8.14,8.4,0,2.92,5.74,3.89a41.54,41.54,0,0,0,12.29-.16,36.11,36.11,0,0,0,15.63-6.37" transform="translate(-74.73 -7.5)"/><g class="cls-2"><g class="cls-96"><g class="cls-2"><path d="M188.77,148.5l-5.47-3a10.3,10.3,0,0,1-2.06-1.46q-4.29-3.93-4.28-13.33a77.56,77.56,0,0,1,.89-10.93,54,54,0,0,1,2.65-10.55l5.47,3a54,54,0,0,0-2.65,10.55,77.56,77.56,0,0,0-.89,10.93q0,9.39,4.28,13.33a10.3,10.3,0,0,0,2.06,1.46" transform="translate(-74.73 -7.5)"/><path d="M186,112.23l-5.47-3a44.1,44.1,0,0,1,2.55-5.69l5.47,3a44.1,44.1,0,0,0-2.55,5.69" transform="translate(-74.73 -7.5)"/><path d="M188.52,106.55l-5.47-3a40.43,40.43,0,0,1,2.51-4.07l5.47,3a40.43,40.43,0,0,0-2.51,4.07" transform="translate(-74.73 -7.5)"/><path d="M191,102.48l-5.47-3,.06-.09a34.55,34.55,0,0,1,2.2-2.77l5.47,3a34.55,34.55,0,0,0-2.2,2.77l-.06.09" transform="translate(-74.73 -7.5)"/><path d="M193.29,99.62l-5.47-3a30,30,0,0,1,2.41-2.44l5.47,3a30,30,0,0,0-2.41,2.44" transform="translate(-74.73 -7.5)"/><path d="M195.7,97.17l-5.47-3a26.89,26.89,0,0,1,2.69-2.13l5.47,3a26.89,26.89,0,0,0-2.69,2.13" transform="translate(-74.73 -7.5)"/><path d="M198.39,95l-5.47-3A25.09,25.09,0,0,1,196.51,90L202,93A25.09,25.09,0,0,0,198.39,95" transform="translate(-74.73 -7.5)"/><path d="M202,93l-5.47-3A25.81,25.81,0,0,1,204,87.8a23.93,23.93,0,0,1,9.43.54l5.47,3a23.93,23.93,0,0,0-9.43-.54A25.81,25.81,0,0,0,202,93" transform="translate(-74.73 -7.5)"/><path d="M218.86,91.31l-5.47-3a27.38,27.38,0,0,1,5.22,2l5.47,3a27.38,27.38,0,0,0-5.22-2" transform="translate(-74.73 -7.5)"/><path d="M224.08,93.27l-5.47-3,1.14.59,5.47,3-1.14-.59" transform="translate(-74.73 -7.5)"/></g></g></g></g><g class="cls-2"><g class="cls-2"><g class="cls-97"><g class="cls-2"><path d="M190.73,251l-5.47-3,.33-.26,5.47,3-.33.26" transform="translate(-74.73 -7.5)"/><path d="M191.06,250.71l-5.47-3,.21-.13,5.47,3-.21.13" transform="translate(-74.73 -7.5)"/><path d="M191.27,250.58l-5.47-3,.13,0,5.47,3-.13,0" transform="translate(-74.73 -7.5)"/></g></g></g><g class="cls-2"><g class="cls-98"><g class="cls-2"><path d="M149.43,280,144,277l.43.22,5.47,3-.43-.22" transform="translate(-74.73 -7.5)"/><path d="M149.87,280.18l-5.47-3a11.49,11.49,0,0,0,2.2.82l5.47,3a11.49,11.49,0,0,1-2.2-.82" transform="translate(-74.73 -7.5)"/><path d="M152.07,281l-5.47-3a13,13,0,0,0,5.09.23,37.21,37.21,0,0,0,6.36-1.48,44.92,44.92,0,0,0,5.12-2l5.47,3a44.92,44.92,0,0,1-5.12,2,37.21,37.21,0,0,1-6.36,1.48,13,13,0,0,1-5.09-.23" transform="translate(-74.73 -7.5)"/><path d="M168.65,277.72l-5.47-3a37.87,37.87,0,0,0,5.41-3.1l5.47,3a37.87,37.87,0,0,1-5.41,3.1" transform="translate(-74.73 -7.5)"/><path d="M174.06,274.61l-5.47-3a34,34,0,0,0,3.41-2.69l5.47,3a34,34,0,0,1-3.41,2.69" transform="translate(-74.73 -7.5)"/><path d="M177.47,271.92l-5.47-3a32.78,32.78,0,0,0,2.64-2.67l5.47,3a32.78,32.78,0,0,1-2.64,2.67" transform="translate(-74.73 -7.5)"/><path d="M180.11,269.25l-5.47-3q.63-.71,1.21-1.46.37-.46.78-1l5.47,3q-.41.58-.78,1-.59.75-1.21,1.46" transform="translate(-74.73 -7.5)"/><path d="M182.1,266.75l-5.47-3a73,73,0,0,0,4.16-7l5.47,3a73,73,0,0,1-4.16,7" transform="translate(-74.73 -7.5)"/><path d="M186.26,259.76l-5.47-3q2-3.7,4.47-8.79l5.47,3q-2.48,5.09-4.47,8.79" transform="translate(-74.73 -7.5)"/></g></g></g><g class="cls-2"><g class="cls-99"><g class="cls-2"><path d="M175,195.39l-5.47-3,.24-.2,5.47,3-.24.2" transform="translate(-74.73 -7.5)"/><path d="M175.21,195.2l-5.47-3,.18-.18,5.47,3-.18.18" transform="translate(-74.73 -7.5)"/><path d="M175.39,195l-5.47-3,.12-.15,5.47,3-.12.15" transform="translate(-74.73 -7.5)"/><path d="M175.51,194.86l-5.47-3,.08-.14,5.47,3-.08.14" transform="translate(-74.73 -7.5)"/><path d="M175.59,194.73l-5.47-3,.07-.15,5.47,3-.07.15" transform="translate(-74.73 -7.5)"/><path d="M175.66,194.58l-5.47-3a1,1,0,0,0,.06-.33q0-2.44-4.79-5l5.47,3q4.79,2.61,4.79,5a1,1,0,0,1-.06.33" transform="translate(-74.73 -7.5)"/></g></g></g><g class="cls-2"><g class="cls-100"><g class="cls-2"><path d="M164.08,198.17l-5.47-3q5.48-1.37,10.88-2.78l5.47,3q-5.41,1.42-10.88,2.78" transform="translate(-74.73 -7.5)"/></g></g></g><g class="cls-2"><g class="cls-101"><g class="cls-2"><path d="M153,226.56l-5.47-3q-5.28-2.87-5.27-7.79a15.47,15.47,0,0,1,1.1-5.19l5.47,3a15.47,15.47,0,0,0-1.1,5.19q0,4.91,5.27,7.79" transform="translate(-74.73 -7.5)"/><path d="M148.87,213.59l-5.47-3q.53-1.43,1.31-3.05.27-.57.56-1.11l5.47,3q-.29.54-.56,1.11-.78,1.62-1.31,3.05" transform="translate(-74.73 -7.5)"/><path d="M150.75,209.42l-5.47-3a24.05,24.05,0,0,1,1.49-2.42l5.47,3a24.05,24.05,0,0,0-1.49,2.42" transform="translate(-74.73 -7.5)"/><path d="M152.24,207l-5.47-3a22.87,22.87,0,0,1,1.58-2l5.47,3a22.87,22.87,0,0,0-1.58,2" transform="translate(-74.73 -7.5)"/><path d="M153.82,205l-5.47-3a22.65,22.65,0,0,1,1.83-1.84l5.47,3a22.65,22.65,0,0,0-1.83,1.84" transform="translate(-74.73 -7.5)"/><path d="M155.65,203.15l-5.47-3a23.4,23.4,0,0,1,2.34-1.85l5.47,3a23.4,23.4,0,0,0-2.34,1.85" transform="translate(-74.73 -7.5)"/><path d="M158,201.3l-5.47-3a25.9,25.9,0,0,1,3.71-2.13l5.47,3A25.9,25.9,0,0,0,158,201.3" transform="translate(-74.73 -7.5)"/><path d="M161.7,199.17l-5.47-3q1.15-.54,2.38-1l5.47,3q-1.24.46-2.38,1" transform="translate(-74.73 -7.5)"/></g></g></g><g class="cls-2"><g class="cls-102"><g class="cls-2"><path d="M151.81,178.71l-5.47-3q15.21-2.14,25.95.64l5.47,3q-10.73-2.78-25.95-.64" transform="translate(-74.73 -7.5)"/><path d="M177.76,179.35l-5.47-3a36.52,36.52,0,0,1,7,2.55l5.47,3a36.52,36.52,0,0,0-7-2.55" transform="translate(-74.73 -7.5)"/><path d="M184.74,181.91l-5.47-3q.6.29,1.18.61l5.47,3q-.58-.32-1.18-.61" transform="translate(-74.73 -7.5)"/></g></g></g><g class="cls-2"><g class="cls-103"><g class="cls-2"><path d="M121.06,301l-5.47-3Q95,286.85,95.06,243.84q0-18,5-31.6l5.47,3q-5,13.56-5,31.6-.08,43,20.53,54.23" transform="translate(-74.73 -7.5)"/><path d="M105.54,215.21l-5.47-3a62.61,62.61,0,0,1,3.62-8.08l5.47,3a62.61,62.61,0,0,0-3.62,8.08" transform="translate(-74.73 -7.5)"/><path d="M109.16,207.13l-5.47-3a56.62,56.62,0,0,1,3.51-5.71l5.47,3a56.62,56.62,0,0,0-3.51,5.71" transform="translate(-74.73 -7.5)"/><path d="M112.67,201.42l-5.47-3q1.23-1.75,2.58-3.39.58-.7,1.18-1.38l5.47,3q-.6.68-1.18,1.38-1.35,1.64-2.58,3.39" transform="translate(-74.73 -7.5)"/><path d="M116.43,196.65l-5.47-3a51.93,51.93,0,0,1,4.19-4.23l5.47,3a51.93,51.93,0,0,0-4.19,4.23" transform="translate(-74.73 -7.5)"/><path d="M120.62,192.42l-5.47-3a50.8,50.8,0,0,1,5.09-4l5.47,3a50.8,50.8,0,0,0-5.09,4" transform="translate(-74.73 -7.5)"/><path d="M125.71,188.4l-5.47-3a52.54,52.54,0,0,1,7.52-4.32l5.47,3a52.54,52.54,0,0,0-7.52,4.32" transform="translate(-74.73 -7.5)"/><path d="M133.22,184.08l-5.47-3a64.4,64.4,0,0,1,18.59-5.36l5.47,3a64.4,64.4,0,0,0-18.59,5.36" transform="translate(-74.73 -7.5)"/></g></g></g><path d="M151.81,178.71q26.41-3.71,39.32,7.39,9.89,8.5,9.87,23,0,9.23-4.88,13.68T179,229q-14.09,2-22.85-1.08-8.4-2.94-8.39-9.15c0-2.17.8-4.91,2.41-8.24a23.83,23.83,0,0,1,13.9-12.36q5.48-1.37,10.88-2.78a1.5,1.5,0,0,0,.75-1.14q0-2.88-6.69-6a27.11,27.11,0,0,0-15.59-2.38,22.79,22.79,0,0,0-17.33,11.8q-5.13,8.77-5.17,21.91A80.91,80.91,0,0,0,132.08,233q4.74,30,11.28,40.71,5.25,8.71,13.8,7.51a37.21,37.21,0,0,0,6.36-1.48q11.36-3.74,17.8-11.95,3.15-4,9.4-16.83a1.8,1.8,0,0,1,.68-.43,38.08,38.08,0,0,1,.55,6.32,54.21,54.21,0,0,1-5.24,23.84q-6.86,14.18-20.9,18.81a114.71,114.71,0,0,1-19.7,4.9q-45.7,6.42-45.58-57.59.06-31,14.73-48.79Q128.49,182,151.81,178.71Z" transform="translate(-74.73 -7.5)"/></g><g class="cls-2"><g class="cls-2"><g class="cls-104"><g class="cls-2"><path class="cls-55" d="M168.73,116.57l-5.47-3,.33-.26,5.47,3-.33.26" transform="translate(-74.73 -7.5)"/><path class="cls-40" d="M169.06,116.3l-5.47-3,.2-.12,5.47,3-.2.12" transform="translate(-74.73 -7.5)"/><path class="cls-41" d="M169.26,116.18l-5.47-3,.13,0,5.47,3-.13,0" transform="translate(-74.73 -7.5)"/></g></g></g><g class="cls-2"><g class="cls-105"><g class="cls-2"><path class="cls-55" d="M128.2,145l-5.47-3,.43.22,5.47,3-.43-.22" transform="translate(-74.73 -7.5)"/><path class="cls-40" d="M128.62,145.23l-5.47-3a11.28,11.28,0,0,0,2.16.8l5.47,3a11.28,11.28,0,0,1-2.16-.8" transform="translate(-74.73 -7.5)"/><path class="cls-41" d="M130.78,146l-5.47-3a12.74,12.74,0,0,0,5,.23,36.56,36.56,0,0,0,6.24-1.46,44.23,44.23,0,0,0,5-2l5.47,3a44.23,44.23,0,0,1-5,2,36.56,36.56,0,0,1-6.24,1.46,12.74,12.74,0,0,1-5-.23" transform="translate(-74.73 -7.5)"/><path class="cls-40" d="M147.07,142.81l-5.47-3a37.13,37.13,0,0,0,5.3-3l5.47,3a37.13,37.13,0,0,1-5.3,3" transform="translate(-74.73 -7.5)"/><path class="cls-55" d="M152.37,139.77l-5.47-3a33.33,33.33,0,0,0,3.34-2.64l5.47,3a33.33,33.33,0,0,1-3.34,2.64" transform="translate(-74.73 -7.5)"/><path class="cls-58" d="M155.72,137.13l-5.47-3a32.12,32.12,0,0,0,2.59-2.61l5.47,3a32.12,32.12,0,0,1-2.59,2.61" transform="translate(-74.73 -7.5)"/><path class="cls-57" d="M158.31,134.51l-5.47-3q.62-.7,1.2-1.44.36-.45.76-1l5.47,3q-.4.57-.76,1-.58.74-1.2,1.44" transform="translate(-74.73 -7.5)"/><path class="cls-49" d="M160.26,132.05l-5.47-3a71.87,71.87,0,0,0,4.09-6.88l5.47,3a71.87,71.87,0,0,1-4.09,6.88" transform="translate(-74.73 -7.5)"/><path class="cls-50" d="M164.35,125.17l-5.47-3q2-3.63,4.37-8.61l5.47,3q-2.42,5-4.37,8.61" transform="translate(-74.73 -7.5)"/></g></g></g><g class="cls-2"><g class="cls-106"><g class="cls-2"><path class="cls-55" d="M153.26,62l-5.47-3,.24-.2,5.47,3-.24.2" transform="translate(-74.73 -7.5)"/><path class="cls-58" d="M153.51,61.81l-5.47-3,.17-.17,5.47,3-.17.17" transform="translate(-74.73 -7.5)"/><path class="cls-57" d="M153.68,61.63l-5.47-3,.11-.14,5.47,3-.11.14" transform="translate(-74.73 -7.5)"/><path class="cls-49" d="M153.79,61.49l-5.47-3,.08-.13,5.47,3-.08.13" transform="translate(-74.73 -7.5)"/><path class="cls-50" d="M153.88,61.35l-5.47-3,.07-.14,5.47,3-.07.14" transform="translate(-74.73 -7.5)"/><path class="cls-51" d="M153.94,61.21l-5.47-3a.94.94,0,0,0,.06-.32q0-2.39-4.69-4.94l5.47,3Q154,58.5,154,60.89a.94.94,0,0,1-.06.32" transform="translate(-74.73 -7.5)"/></g></g></g><g class="cls-2"><g class="cls-107"><g class="cls-2"><path class="cls-41" d="M142.58,64.74l-5.47-3q5.37-1.34,10.68-2.74l5.47,3q-5.31,1.41-10.68,2.74" transform="translate(-74.73 -7.5)"/></g></g></g><g class="cls-2"><g class="cls-108"><g class="cls-2"><path class="cls-51" d="M131.74,92.6l-5.47-3q-5.19-2.82-5.17-7.64a15.23,15.23,0,0,1,1.08-5.11l5.47,3A15.24,15.24,0,0,0,126.57,85q0,4.82,5.17,7.64" transform="translate(-74.73 -7.5)"/><path class="cls-50" d="M127.65,79.85l-5.47-3q.52-1.4,1.28-3,.26-.55.55-1.08l5.47,3q-.28.53-.55,1.08-.76,1.58-1.28,3" transform="translate(-74.73 -7.5)"/><path class="cls-49" d="M129.48,75.8l-5.47-3a23.67,23.67,0,0,1,1.47-2.38l5.47,3a23.67,23.67,0,0,0-1.47,2.38" transform="translate(-74.73 -7.5)"/><path class="cls-57" d="M130.94,73.41l-5.47-3a22.49,22.49,0,0,1,1.56-2l5.47,3a22.49,22.49,0,0,0-1.56,2" transform="translate(-74.73 -7.5)"/><path class="cls-58" d="M132.5,71.44l-5.47-3a22.26,22.26,0,0,1,1.79-1.81l5.47,3a22.26,22.26,0,0,0-1.79,1.81" transform="translate(-74.73 -7.5)"/><path class="cls-55" d="M134.29,69.63l-5.47-3a23,23,0,0,1,2.3-1.82l5.47,3a23,23,0,0,0-2.3,1.82" transform="translate(-74.73 -7.5)"/><path class="cls-40" d="M136.6,67.81l-5.47-3a25.43,25.43,0,0,1,3.64-2.09l5.47,3a25.43,25.43,0,0,0-3.64,2.09" transform="translate(-74.73 -7.5)"/><path class="cls-41" d="M140.24,65.72l-5.47-3q1.13-.53,2.34-1l5.47,3q-1.22.45-2.34,1" transform="translate(-74.73 -7.5)"/></g></g></g><g class="cls-2"><g class="cls-109"><g class="cls-2"><path class="cls-41" d="M130.53,45.64l-5.47-3q14.93-2.1,25.46.63l5.47,3q-10.53-2.72-25.46-.63" transform="translate(-74.73 -7.5)"/><path class="cls-40" d="M156,46.26l-5.47-3a35.85,35.85,0,0,1,6.85,2.51l5.47,3A35.85,35.85,0,0,0,156,46.26" transform="translate(-74.73 -7.5)"/><path class="cls-55" d="M162.84,48.77l-5.47-3q.59.29,1.16.6l5.47,3q-.57-.31-1.16-.6" transform="translate(-74.73 -7.5)"/></g></g></g><g class="cls-2"><g class="cls-110"><g class="cls-2"><path class="cls-51" d="M100.35,165.72l-5.47-3q-20.23-11-20.15-53.23,0-17.72,4.92-31l5.47,3q-4.89,13.32-4.92,31-.08,42.23,20.15,53.23" transform="translate(-74.73 -7.5)"/><path class="cls-50" d="M85.12,81.44l-5.47-3a61.5,61.5,0,0,1,3.56-7.94l5.47,3a61.5,61.5,0,0,0-3.56,7.94" transform="translate(-74.73 -7.5)"/><path class="cls-49" d="M88.67,73.5l-5.47-3a55.63,55.63,0,0,1,3.45-5.61l5.47,3a55.63,55.63,0,0,0-3.45,5.61" transform="translate(-74.73 -7.5)"/><path class="cls-57" d="M92.13,67.9l-5.47-3q1.2-1.71,2.52-3.31.56-.68,1.14-1.34l5.47,3q-.58.66-1.14,1.34-1.32,1.6-2.52,3.31" transform="translate(-74.73 -7.5)"/><path class="cls-58" d="M95.79,63.25l-5.47-3a51,51,0,0,1,4.11-4.15l5.47,3a51,51,0,0,0-4.11,4.15" transform="translate(-74.73 -7.5)"/><path class="cls-55" d="M99.9,59.1l-5.47-3a49.9,49.9,0,0,1,5-4l5.47,3a49.9,49.9,0,0,0-5,4" transform="translate(-74.73 -7.5)"/><path class="cls-40" d="M104.89,55.15l-5.47-3a51.6,51.6,0,0,1,7.38-4.24l5.47,3a51.6,51.6,0,0,0-7.38,4.24" transform="translate(-74.73 -7.5)"/><path class="cls-41" d="M112.27,50.9l-5.47-3a63.25,63.25,0,0,1,18.26-5.27l5.47,3a63.25,63.25,0,0,0-18.26,5.27" transform="translate(-74.73 -7.5)"/></g></g></g><path class="cls-62" d="M130.53,45.64q25.92-3.64,38.59,7.26,9.71,8.35,9.69,22.62,0,9.05-4.79,13.42T157.22,95q-13.83,1.94-22.41-1.06-8.26-2.9-8.24-9a19.74,19.74,0,0,1,2.36-8.09,23.41,23.41,0,0,1,13.65-12.14Q148,63.4,153.26,62a1.46,1.46,0,0,0,.74-1.12q0-2.83-6.57-5.89a26.67,26.67,0,0,0-15.3-2.34,22.38,22.38,0,0,0-17,11.6q-5,8.61-5.08,21.51a79.42,79.42,0,0,0,1.12,13.17q4.64,29.41,11.07,40,5.16,8.56,13.55,7.37a36.56,36.56,0,0,0,6.24-1.46q11.15-3.67,17.48-11.73,3.09-3.91,9.22-16.51a1.71,1.71,0,0,1,.66-.42,37.45,37.45,0,0,1,.54,6.19,53.16,53.16,0,0,1-5.14,23.4Q158,159.67,144.27,164.2A112.77,112.77,0,0,1,124.93,169q-44.85,6.3-44.73-56.53.06-30.44,14.45-47.9Q107.63,48.85,130.53,45.64Z" transform="translate(-74.73 -7.5)"/></g><text class="cls-111" transform="translate(329.27 286.5)">FOR DIGITAL CREATIVE SOLUTION</text></svg>